<svg xmlns="http://www.w3.org/2000/svg" width="2000" height="2000" class="nott" viewBox="0 0 2000 2000">
	<title>nott</title>
	<g transform="translate(307.754 -13)" style="pointer-events:none">
		<title>nott</title>
		<path fill="#ce926d" d="M1211.57 1126.72c-.66 6.7-.74 12.43.72 19.93 4.28 39.96-7.88 76.69-10.38 114.33-.78 11.71-5.48 22.56-12.93 33.86-11.4 4.65-13.86 18-26.86 19.84-12.38 1.08-17.34-6.1-21.73-14.2-6.81-12.56-12.87-25.51-20.55-40.4-10.08 48.68-18.01 95.85-32.61 143.04-2.29 3.1-4.04 4.46-7.72 5.96-24.56 3.94-46.6 11.57-69.69 14.06-8.85.96-17.584 2.4-28.054.11-13.971-9.55-12.131-19.79-4.05-30.41 35.764-47.03 67.714-96.9 106.194-141.88 4.06-4.76 7.91-9.25 9.05-17.16 1.99-6.7 6.02-10.04 10.94-14.59 2.72-2.25 4.28-3.51 7.11-5.57 15.91-7.75 22.02-23.15 33.53-33.37 19.65-17.44 36.41-37.97 58.6-54.83 3.44-.8 5.41-.51 8.43 1.28" style="stroke-width:1"/>
		<path fill="#6a363c" d="M302.993 34.121c5.855 13.257 15.691 23.23 23.483 34.435 11.806 16.758 23.014 33.925 34.038 51.297 17.267 27.136 35.754 53.558 53.41 80.49 5.097 7.812 11.726 13.262 21.073 17.885 16.181 25.497 29.314 50.884 26.872 82.344-16.518 12.643-23.299-.518-29.988-10.178-22.841-33.408-45.711-66.716-66.254-101.463-19.353-32.791-49.794-49.854-82.207-65.277-3.654-1.744-8.065-4.623-11.525-1.644-4.724 4.01-1.167 9.047 1.014 13.057 6.019 11.1 16.097 18.398 25.22 26.623 13.333 12.235 30.356 21.586 34.194 42.968-6.392 11.617-16.277 6.376-26.13 7.607-5.955-1.131-8.862-4.828-14.412-6.576-12.051-4.524-15.171-15.11-20.989-23.13-6.228-8.534-13.133-15.419-25.44-17.785-15.571-5.654-29.591-.205-43.682.104-8.117.104-16.201 2.362-25.853-.722-11.714-9.043-8.153-16.754-.205-23.744 5.326-4.727 10.467-9.251 13.021-17.889 2.402-2.775 3.581-4.523 5.141-5.754 30.068-24.261 60.127-48.522 90.323-72.575 5.238-4.114 10.282-8.942 18.896-10.073" style="stroke-width:1"/>
		<path fill="#5e2f37" d="M993.511 219.977c1.604-2.671 2.038-4.524 2.491-7.812 12.268-9.151 20.928-20.455 29.778-31.664 7.17-8.942 14.19-18.089 21.44-27.036 4.3-5.345 9.23-10.073 15.7-12.644a5845 5845 0 0 1 56.76-22.203c1.84-.718 4-.514 7.61-.409 8.57 11.821-1.28 17.68-7.06 24.565-19.32 23.03-45.69 39.167-63.14 64.046-1.93 2.775-3.62 5.55-5.64 9.969-21.84 29.606-42.68 58.082-59.871 90.772-.45 2.362-.566 3.289-.955 5.654-1.355 4.933-3.208 8.121-5.181 12.849-4.046 5.758-8.337 9.456-12.503 15.214-4.568 4.628-6.264 9.251-8.895 15.11-15.154 8.225-23.054 20.664-29.931 34.13-9.769 19.225-21.121 37.523-33.873 54.894-5.426 7.403-11.068 13.98-23.075 9.147-7.891-10.791-6.251-20.66-2.514-31.146 3.605-10.073 4.812-20.764-.285-32.895-.409-7.711 2.322-12.848 5.129-19.533 13.55-13.466 18.639-30.324 27.534-44.717 19.413-31.559 42.9-60.135 63.76-90.564 5.442-7.916 13.546-10.999 22.721-15.727" style="stroke-width:1"/>
		<path fill="#c8a288" d="M1273.07 411.9c1.13 6.681 1.23 12.848.21 18.916-7.68 45.229-10.37 90.768-12.07 136.515-.23 6.064-.18 12.54 1.46 18.298 3.78 13.362 3.69 26.932 3.6 40.603-.25 34.129-1.12 68.259-.65 102.389.21 16.446-3.53 30.942-14.27 45.126-1.93 1.544-2.95 1.953-5.64 2.466-10.82-3.084-10.23-10.482-10.1-18.089.26-14.597-.04-29.198-5.63-44.617-1.28-2.362-1.77-3.184-2.76-5.654 4.08-17.167 3.22-33.408 4.71-49.444 1.32-14.188-1.71-23.953-18.55-27.241-6.62-9.251-4.95-18.194-3.18-26.832 5.85-28.371 7.28-57.873 19.43-84.909 3.66-8.121 1.19-16.859-1.54-26.832.06-4.215.71-6.372 2.82-9.869 14.4-14.801 12.54-34.539 21.44-49.958 4.96-8.533 6.34-20.046 20.72-20.868" style="stroke-width:1"/>
		<path fill="#d0642b" d="M1206.54 905.639c-.44 3.288-.61 4.728-1.06 7.399-.99 2.057-1.67 2.983-3.86 5.036-10.57 4.832-19.94 5.859-29.49 3.393-28.48-7.399-57.65-11.409-86.33-17.885-10.13-2.262-20.02-5.037-25.53-17.167-1.29-12.644 6.95-17.067 14.22-21.896 15.91-10.59 33.62-17.784 52.08-27.036 11.81-.822 15.66-9.251 21.05-15.727 6.34-7.712 12.44-16.037 26.06-13.879 16.53.104 30.96-11 47.56-.413 7.26 8.533 2.26 15.214-.27 21.999-7.28 19.533-13.06 39.371-13.9 62.093-.02 5.345.07 8.838-.53 14.083" style="stroke-width:1"/>
		<path fill="#8f626d" d="M1275.37 411.491c-10.29 14.288-14.5 30.015-21.12 44.612-3.85 8.534-5.41 18.094-12.97 26.01-16.42 3.801-16.01-8.125-17.26-16.863-7.7-53.863-14.74-107.831-20.77-161.903-1.75-15.628-4.27-31.047-5.74-46.67-.73-7.507-1.85-15.01 5.83-22.104 23.39-3.597 21.78 14.906 27.73 28.785 19.04 42.868 33.72 85.423 42.94 131.27 4.49 5.863 3.72 10.796 1.36 16.863" style="stroke-width:1"/>
		<path fill="#ce926d" d="M1226.42 269.73c-6.15-11.308-10.85-21.791-16.55-33.204-11.54-4.728-9.63-18.707-20.6-23.952-16.13-6.989-31.66-8.221-47.46-8.016-18.5.309-36.69-1.544-55.41-9.46-7.19-11.204-1.84-17.472 6.18-22.922 12.89-8.633 26.39-16.549 38.64-26.009 15.69-12.131 30.55-15.828 47.16-2.262 3.54 2.879 8.23 4.628 13.98 7.507 1.52.718 1.12.822 1.08.618.47 2.875 2.82 3.288 6.34 4.11 10.09 3.288 16.17 8.842 19.83 17.885 5.59 13.983 12.27 27.449 18.6 42.663 1.31 3.906 1.71 6.477 3.28 9.869.92.923 1.52 1.953 1.03 2.262-.11 2.053.63 3.597 2.69 5.859 2.23 2.879 3.53 4.832 4.86 7.916-3.7 5.345-3.83 10.482-4.46 15.727-1.22 10.178-7.13 15.006-19.19 11.409m-19.91 651.532c16.74 39.752 31.58 78.69 47.21 116.578-5.67 4.95-10.67 3.01-15.2 3.73-2.14.34-3.61 1.38-3.7 5.03.02 2.42-.35 3.41-2.11 5.09-5.67 1.55-9.84.82-12.74-2.28-14.53-15.39-33.9-22.06-52.66-29.89-10.6-4.42-21.71-8.15-28.64-20.317-.51-12.921 3.64-22.429 11.9-30.509 15.89-15.543 24.26-38.18 47.21-48.976 3.63-.717 5.66-.409 8.74 1.544" style="stroke-width:1"/>
		<path fill="#c26b2e" d="M1193.13 150.999c-7.56 1.031-15.25-1.748-22.5-5.241-9.05-4.419-16.58-2.571-24.5 2.775-19.56 13.261-39.4 26.009-60.07 39.989-1.03 2.057-1.1 3.083-1.46 5.754-7.19 10.691-8.07 24.983-24.28 27.345-6.15-.409-10.74-.205-15.27-5.141 4.22-14.288 12.68-24.875 22.47-34.539 15.05-14.801 30.29-29.502 45.29-44.408 5.3-5.241 10.12-11 15.62-17.785 2.79-2.67 5.08-4.11 7.44-5.55 3.95-2.261 7.79-2.261 11.17 1.131 13.64 13.466 29.98 23.335 46.09 35.67" style="stroke-width:1"/>
		<path fill="#ac7e74" d="M1213.99 1127.28c-2.6.9-3.91 1.11-6.27 1.05-32.73 1.19-52.3-18.83-71.27-41.83.23-2.81.58-3.89 2.06-6.33 30.39-12.79 61.29-13.79 93.84-15.54 4.21.65 6.35 1.66 9.22 4.75-1.04 3.34-3.3 4.95-5 7.02-1.39 1.69-1.03 4.14.77 5.29 5.74 3.66 13.72.73 19.81 6.95-12.55 14.38-27.13 26.33-43.16 38.64" style="stroke-width:1"/>
		<path fill="#c8a288" d="M1225.24 270.348c6.04-3.289 10.53-6.99 12.4-13.466 1.56-5.45 4.12-10.074 11.13-12.644 1.34-.413 2.64.718 3.07 1.54-.26 2.161-.15 3.392 1.82 5.141 6.88 10.282 5.7 21.69 7.28 32.277 5.04 33.617 9.12 67.333 13.53 101.05.35 2.675.38 5.45.5 9.973-9.17-11.204-12.93-26.522-18.83-40.81-11.06-26.832-22.6-53.559-30.9-83.061" style="stroke-width:1"/>
		<path fill="#c77845" d="M1206.32 894.948c-.73-11.308-1.13-21.386-.2-31.355.87-9.251 3.44-18.402 7.9-26.727 3.8-7.198 6.41-14.701 7.31-24.466-12.82-12.235-9.59-26.627-8.71-40.297.43-6.886 3.26-13.775-.15-22.409-2.94-22.412 3.83-34.747 23.15-41.223 8.77 19.633 12.2 38.857 8.76 59.004-.33 1.957.51 4.01 1.44 7.507.88 2.157 1.15 2.879 1.47 4.832.07 1.231-.01 1.54-.2 1.54-1.6 1.44-2.86 2.984-4.15 6.272-3.16 8.225-5.65 15.214-9.29 21.586-10.82 18.916-17.02 39.271-20.69 62.193-1.35 2.879-2.17 4.319-2.17 6.889.03 4.832-.6 8.634-1.58 13.775-.89 2.362-1.43 3.288-2.89 2.879" style="stroke-width:1"/>
		<path fill="#ce926d" d="M1243.89 1070.69c-3.25.07-5.17-.08-8.51-.26-7.77-5.05-8.06-11.15-3.15-19.26 1.49-1.36 2.23-2.24 2.6-2.69 3.97 1.16 7.84 2.31 11.09 4.45 4.61 3.03 13.42 3.12 12.44 10.21-.64 4.67-8.38 5.3-14.47 7.55" style="stroke-width:1"/>
		<path fill="#97573e" d="M1207.71 921.262c-1.57 1.027-3.08.927-5.73.618-2.3-1.44-2.81-2.879-1.83-5.55 1.54-1.131 2.23-1.339 3.98-1.853 1.92 1.644 2.77 3.702 3.58 6.785m-2.34-25.905c.03-1.748 1.77-1.748 2.63-1.849.53 3.802.2 7.608-.95 12.644-1.11-2.161-1.41-5.654-1.68-10.795" style="stroke-width:1"/>
		<path fill="#c26b2e" d="M1200.29 155.627c-1.44 0-3.49-.927-6.22-2.775 1.42-.105 3.53.822 6.22 2.775" style="stroke-width:1"/>
		<path fill="#c8a288" d="M1242.28 226.249c-.98-1.031-2.08-3.293-3.58-6.786.91.927 2.19 3.188 3.58 6.786" style="stroke-width:1"/>
		<path fill="#7f362e" d="M685.997 9.551c.289.409-1.455.618-2.274.309-.008-1.131.923-1.34 2.27-.309m38.922 9.765c-.982.308-1.708-.823-1.945-1.44.907-1.131 2.073-1.231 4.006-.309.746.517-1.074 1.44-2.061 1.749m18.026 2.674c.437.514-.883.822-.883.822s-1.283-.413-1.744-.926c.437-1.027 1.319-1.027 2.627.104m8.701 3.597c.574.618-1.054.822-1.054.822s-1.544-.617-2.118-1.13c.542-1.027 1.601-.823 3.172.308M637.114.709c-.317.513-1.087.513-2.963.208.016-1.131 1.219-1.235 2.963-.208" style="stroke-width:1"/>
		<path fill="#c8a288" d="M1245.95 234.265c-.72-.101-1.62-1.54-3.23-4.111.55.205 1.8 1.44 3.23 4.111" style="stroke-width:1"/>
		<path fill="#8f626d" d="M1248.29 780.223c-1.12 0-1.29-.718-1.65-2.67.45-1.44 1.09-1.853 2.77-2.471.62 1.235.21 2.779-1.12 5.141m-4.37 7.916c-.33-.822.46-2.57 2.12-5.654.24.722-.37 2.675-2.12 5.654m10.73-537.734c-1.14.309-1.88-.721-2.31-2.979 1.27-.309 2.07.613 2.31 2.979" style="stroke-width:1"/>
		<path fill="#97573e" d="M1212.01 878.394c-.51-.513-.47-2.053.06-4.419.51.413.51 1.953-.06 4.419" style="stroke-width:1"/>
		<path fill="#352640" d="M211.374 1312.66c-11.224-1.65-16.529-9.82-25.259-15.25-3.297-4.27-5.418-7.86-8.357-12.39-5.49-45.54-16.297-89.08-23.471-133.24-.65-4.01-1.075-8.07-1.657-13.8 6.272-9.16 13.414-6.82 19.906-2.58 25.914 16.92 54.201 30.78 74.472 57.58.164 41.57-13.306 78.51-27.201 115.33-.942 2.49-4.086 3.42-8.433 4.35" style="stroke-width:1"/>
		<path fill="#7a5b69" d="M121.059 762.338a35 35 0 0 1-4.52-.926c-1.511-3.084-2.089-6.063-2.903-9.973-2.093-50.676-4.483-100.225-1.431-151.83 2.791-5.859 3.609-10.587 5.489-14.906 5.085-11.617 11.397-12.131 19.514-.618 5 24.775 14.861 46.979 12.752 72.988.529 4.01.641 6.272.08 10.278-8.141 25.701-11.397 50.68-16.249 75.25-1.548 7.811-.995 16.858-12.732 19.737" style="stroke-width:1"/>
		<path fill="#2e243b" d="M453.231 304.273c3.184-9.664.385-17.376-2.081-24.983-4.527-14.083-9.267-28.063-13.787-42.146-1.624-5.037-4.034-10.073-1.796-16.858 1.239-1.131 1.945-1.131 3.709-1.027 2.494-1.44 4.102-2.571 7.367-3.497 13.498 3.906 21.618 15.319 34.362 17.885 5.514 1.131 12.644 7.607 16.474-4.419.024-11.717-2.936-21.586-3.87-31.764-.762-8.325-1.131-16.654 6.881-22.1 8.229-5.758 15.423-1.648 22.79 2.467 28.227 15.314 52.973 35.669 79.74 55.92 19.854 30.325 28.32 64.25 41.721 96.014 15.8 37.418 28.263 76.276 44.805 114.929 1.536 1.953 2.033 2.876 2.843 5.137 1.055 9.151 1.296 16.759-7.695 20.151-8.361 3.184-14.064-1.748-19.974-6.58-23.828-19.429-23.989-19.429-42.856 6.167-3.81 5.141-7.736 9.356-15.888 10.073-19.425-15.623-39.095-3.597-59.546-3.701-10.495-1.026-13.073-8.734-17.047-14.801-19.321-29.811-32.939-62.501-47.492-94.674-5.121-11.309-12.263-19.738-23.322-27.554-3.333-11.922-12.793-21.277-5.338-34.639" style="stroke-width:1"/>
		<path fill="#4f324b" d="M672.74 198.595c15.455 15.932 33.404 26.831 49.557 39.989 6.267 5.036 12.988 9.56 20.615 15.318 12.737 6.681 10.627 16.241 7.712 25.697-15.427 49.444-29.711 99.302-44.179 149.059-2.679 9.251-5.815 18.503-18.736 21.173-9.054-3.492-12.242-10.482-14.929-17.476a49226 49226 0 0 1-71.725-189.453c-1.227-9.868-2.057-18.402-3.099-26.935-.798-6.477-2.475-13.053 1.684-20.66 3.597.822 6.019 3.083 8.722 4.932 4.206 2.775 8.196 8.429 13.538 6.067 5.702-2.47 2.29-9.251 3.212-15.627 1.837 0 3.749 1.644 6.637 3.906 8.164 2.161 15.226 11.822 22.805-.309 3.104-3.288 5.999-3.493 8.987-1.436 2.614 1.745 5.293 3.493 9.199 5.755" style="stroke-width:1"/>
		<path fill="#674b60" d="M131.722 585.834c-3.321-2.466-5.695-5.037-7.82-1.849-2.911 4.419-4.399 9.865-10.482 13.157-2.567-7.811-.061-15.627 2.165-23.543 5.698-20.147 5.658-40.398 1.432-60.753-2.771-13.362-5.418-26.727-8.827-41.528-.769-4.42-.838-7.503-.962-12.027 3.2-9.251 3.697-17.375 3.697-25.7.004-15.01.405-30.016.04-45.026-.585-23.952 2.892-47.596 6.541-71.135 3.541-22.926 7.102-45.847 10.141-68.873 1.733-13.057 5.679-24.983 12.632-36.292 10.695-17.472 20.532-35.361 31.632-54.276 4.936-1.131 9.115-.514 12.989-1.336 20.66-4.419 41.58-3.288 64.362-3.492 8.838 11.613-.349 17.78-6.693 24.257-21.31 21.895-43.189 43.176-60.003 70.93-12.279 28.785-12.708 59.213-23.708 86.867-1.973 4.932-1.997 10.691-5.867 16.65-14.749 46.673-25.348 90.977-3.629 138.059 18.483 40.089 28.512 83.575 42.7 127.265 2.265 7.707.661 12.952-5.157 18.398-30.95-2.879-41.846-26.418-55.183-49.753" style="stroke-width:1"/>
		<path fill="#dca57e" d="M1101.92 1232.76c-4.7 16.03-15.26 27.8-24.31 40.39-28.92 40.26-58.51 80.03-87.84 119.98-4.82 6.56-10.266 12.77-11.693 22.88.34 3.41.773 5.27.91 8.64-.513 3.44-1.211 5.3-2.988 8.37-1.411 2.16-2.013 3-3.741 4.95-19.241 9.39-25.593 27.21-34.92 42.66-4.892 8.1-9.588 16.74-23.014 15.54-14.248 2.2-26.828 5.32-41.011-.28-9.195-9.1-11.04-18.54-7.098-29.05 13.923-37.05 26.98-74.44 42.948-112.39 25.749-25.62 56.185-42.54 84.557-64.66 12.72-2.82 19.83-11.46 28.34-18.03 17.79-13.75 36.5-26.17 56.15-37.15 7.17-4 14.25-8.64 23.71-1.85" style="stroke-width:1"/>
		<path fill="#e6c6a9" d="M969.134 1421.94c2.53-2.09 4.616-2.81 7.679-3.94 19.084-3.23 37.197-6.03 55.297-8.88 14.09-2.22 28.15-4.51 43.98-7.27-.18 8.25-7.26 14.18-11 23.47-1.03 3.17-1.61 5.07-2.72 8.37-25.85 51.52-52.78 100.7-86.234 147.73-27.498 16.67-47.841 39.91-72.727 57.43-7.391 5.2-13.883 11.38-24.895 4.95-6.657-17.31 1.247-31.84 6.348-45.89 19.325-53.18 43.598-104.18 72.547-152.87 2.795-4.71 5.281-9.56 8.381-15.91 1.002-1.3.501-1.23.533-.98 1.343-1.21 2.121-2.9 2.811-6.21" style="stroke-width:1"/>
		<path fill="#c77f4c" d="M1140.37 1081.97c-.64 1.46-.68 3.27-.74 4.18 4.06 11.99 4.66 23.13 2.14 34.82-4.43 20.57-8.21 41.3-11.55 62.08-1.96 12.17-6.2 23.22-14.53 34.51-1.84 2.27-2.7 3.05-4.36 4.23-9.82 1.92-16.22-2.16-21.18-9.38-6.91-10.06-15.92-18.21-24.39-26.85-6.95-7.1-13.92-7.17-22.41.23-18.67 10.12-25.77 29.23-39.94 41.72-3.442 3.04-5.107 7.98-11.523 9.95-2.63.09-3.689-.11-6.135-1.15-2.891-2.49-3.934-4.38-4.804-8.14-4.909-23.73 2.494-44.56 6.901-65.64 1.368-6.54 5.334-12.62.574-20.96-1.203-3.77-1.223-6.02-.061-9.81 2.118-3.32 3.846-4.71 7.383-6.31 44.065-15.79 85.675-33.72 130.825-45.96 3.98-2.64 6.9-3.67 11.61-2.51 1.89 1.65 2.37 2.59 2.19 4.99" style="stroke-width:1"/>
		<path fill="#dd9052" d="M1036.28 1182.6c2.49-9.98 9.25-15.12 14.54-21.24 2.03-2.34 5.11-1.76 7.5-.08 2.21 1.55 4.51 3.26 6.08 5.39 13.7 18.79 31.78 33.9 45.44 54.49-1.31 4.45-3.39 7.76-6.19 11.95-22.57 8.97-41.47 22.3-60.27 35.53-13.33 9.38-27.09 17.97-42.43 26.65-3.12-.51-4.427-2.12-5.393-5.76 10.903-37.11 17.923-74.27 40.723-106.93" style="stroke-width:1"/>
		<path fill="#a56450" d="M1115.96 1218.49c2.93-35.57 9.94-71.12 17.11-106.65 1.49-7.36 3.43-14.62 5.83-23.36 22.19 11.73 43.72 24.9 66.53 38.93-1.04 6.7-4.74 11.57-9.18 15.96-22.43 22.14-44.77 44.36-67.33 66.37-3.36 3.28-7.71 5.56-12.96 8.75" style="stroke-width:1"/>
		<path fill="#dca57e" d="M1158.34 1308.61c.87 6.55-.39 11.77-4.25 16.04-22.82 25.21-44.77 51.24-71.8 74.36 8.42-47.34 18.08-95.38 27.84-143.42 1.07-5.3 2.53-10.54 4.1-15.72.29-.97 1.91-2.11 2.94-2.15 1.1-.03 2.66.91 3.26 1.89 2.13 3.47 4.03 7.09 5.87 10.74 6.71 13.38 13.37 26.81 20.04 40.21 3.04 6.09 5.79 12.37 12 18.05" style="stroke-width:1"/>
		<path fill="#56395a" d="M174.189 245.469c-.085-7.603 3.657-12.231 7.755-16.959 18.755-21.382 37.603-42.663 58.263-62.297 3.424-3.288 6.304-7.093 10.202-11.821 9.764-1.027 16.196 3.392 20.916 10.795 6.613 10.382 13.262 20.66 20.52 32.277 8.389 9.973 9.504 19.942 7.88 31.146-2.835 19.534-5.193 39.167-7.559 58.801-1.648 13.674-.189 27.14 10.426 35.774 23.567 19.328 20.463 42.354 12.572 66.82-2.507 7.811-5.045 15.623-9.115 24.57-1.58 3.597-2.807 5.445-5.45 8.22-13.915 7.299-20.015-1.231-25.825-10.073-29.502-45.13-60.725-89.229-84.938-137.647-2.117-4.214-4.72-8.325-8.798-13.052-2.831-5.863-3.325-11-6.849-16.554" style="stroke-width:1"/>
		<path fill="#b2582c" d="M453.231 302.112c4.933 9.355 8.842 17.989 12.824 28.062 14.79 34.335 31.825 66.407 40.162 101.977 1.997 8.533 6.259 16.963-1.937 26.418-13.206 6.376-18.282-.926-23.503-9.969-6.533-11.308-9.536-25.083-22.97-33.412-2.246-1.335-3.076-1.953-4.901-3.697-2.767-3.601-4.234-6.172-5.911-10.282-4.407-10.795-10.374-19.016-17.215-28.167-1.64-1.953-3.232-3.906-4.784-5.963-1.199-1.644-1.652-2.262-2.807-3.906-.946-1.335-1.917-2.57-2.911-3.906-1.039-1.235-2.086-2.57-3.144-3.801-1.372-1.648-1.933-2.366-3.349-4.01-3.906-4.628-5.85-8.843-8.252-14.497-.025-21.073-11.365-35.257-22.269-49.958-15.298-20.664-31.575-40.706-44.748-62.914-3.505-5.959-7.118-11.513-8.193-19.942-17.42-16.345-33.785-31.864-51.141-46.257-10.534-8.738-17.784-18.811-20.379-32.072-1.367-6.89-8.986-14.806-2.366-20.664 5.209-4.624 12.877 1.439 19.052 3.805 25.051 9.456 47.965 23.026 70.024 38.136 6.272 4.319 11.389 9.869 15.708 16.037 5.847 8.429 11.657 16.858 17.275 25.392 21.715 33.203 43.322 66.407 65.052 99.506 2.988 4.523 6.432 8.842 10.687 14.084" style="stroke-width:1"/>
		<path fill="#7a5b69" d="M300.114 417.141c-.461-13.979 4.571-25.388 6.993-37.314 6.444-31.764 8.782-29.093-13.911-49.958-12.776-11.821-14.653-24.982-12.431-40.71 4.098-28.885 7.683-57.978 11.597-88.715 3.377-.923 6.637-.101 11.056 1.235 9.047 8.224 22.605 9.355 26.15 23.952-1.271 8.225-2.434 15.01.746 21.177 20.09 39.267 31.174 81.826 46.509 122.842 13.125 35.156 7.382 43.585-28.737 49.961-13.734 2.467-27.469 3.289-42.928 1.745-2.442-1.336-3.312-2.053-5.044-4.215" style="stroke-width:1"/>
		<path fill="#8a5a4b" d="M321.279 227.688c-2.663-10.486-10.474-15.727-15.976-24.261 6.612-1.235 13.526 3.597 22.244 0 10.153 4.624 16.726 12.231 22.34 20.969 15.503 23.852 31.307 47.596 46.621 71.652 7.251 11.309 15.644 22.204 19.209 37.214-8.141 6.268-14.757 2.566-19.594-3.701-25.604-32.895-57.332-61.271-74.844-101.873" style="stroke-width:1"/>
		<path fill="#5f404e" d="M686.198 450.862c5.542-9.56 8.85-19.224 11.769-29.197 13.951-47.288 27.959-94.47 42.018-141.757 2.154-7.194 4.64-14.393 4.098-23.54 10.014-6.989 11.153-18.298 16.394-26.935 2.121-3.389 5.971-3.802 8.176-.514a67 67 0 0 1 4.171 7.094c9.724 18.811 19.381 37.727 29.117 56.643 2.194 4.214 4.407 8.529 6.986 12.539 2.522 3.906 6.636 4.319 10.606 1.235 7.64-5.858 13.859-13.157 19.754-20.764 2.093-2.675 4.219-5.45 6.621-7.816 2.298-2.261 5.301-2.362 6.985.413 2.463 4.111 4.48 8.43 6.196 12.849a8290 8290 0 0 1 29.783 78.333c-1.063 6.168-2.506 10.795-4.251 16.858-6.697 33.617-20.094 62.811-37.979 91.9-2.823 5.45-6.132 8.02-11.966 9.664-16.241 1.44-20.741-10.073-27.049-19.737-13.534-20.765-17.632-21.178-36.054-5.346-9.801 8.534-20.011 16.449-29.655 25.187-15.399 13.875-24.438 12.231-37.158-4.01-6.865-8.633-9.191-19.633-16.79-29.402-.998-1.026-1.568-2.775-1.772-3.697" style="stroke-width:1"/>
		<path fill="#ad8585" d="M956.101 351.351c2.972-5.14 5.165-8.738 8.345-13.052 10.398-2.88 18.342 1.335 26.475 5.036 43.609 19.838 87.969 38.036 131.469 58.079 3.23 1.543 6.7 1.13 11.52 2.47 2.35 1.435 3.2 2.157 4.96 4.214 3.21 7.503 1.59 12.744-3.41 18.812-48.47 20.559-94.81 42.25-141.977 61.984-22.713 9.46-45.803 18.093-68.131 28.58-9.111 4.214-19.345 8.533-28.957-3.084-3.413-14.906 1.055-27.345 5.021-39.68 13.658-42.559 30.047-83.883 54.685-123.359" style="stroke-width:1"/>
		<path fill="#bf9e8c" d="M1132.89 406.35c-2.39 3.906-4.14 6.372-7.13 5.859-3.28-.413-6.5-1.644-9.57-2.98-38.61-16.654-77.3-33.103-115.72-50.166-11.654-5.141-24.086-9.46-34.087-20.456 1.668-5.345 4.283-9.564 7.635-14.805 3.706-4.319 5.55-8.325 8.458-13.053.982-.926.721-.826.806-.722 20.498-22.308 35.058-48.931 53.498-72.883 6.36-8.225 12.49-15.832 23.15-21.278 7.28-7.916 13.31-14.905 20.29-22.617 7.75 2.775 13.27 7.403 15.28 15.419 14.4 57.774 28.16 115.752 38.93 174.447 1.36 7.403 2.95 14.701-1.54 23.235" style="stroke-width:1"/>
		<path fill="#8a5a4b" d="M955.744 350.529c1.44 7.812-2.169 15.215-5.385 22.718-18.848 43.998-34.202 89.228-50.435 135.798-.353 3.801-1.303 5.754-4.728 7.502-11.501-1.539-12.973-8.838-13.101-18.707 1.584-13.57-3.497-24.261-5.418-37.213.614-2.571 1.063-3.497 2.775-5.55 15.491-15.936 24.935-34.335 35.939-51.502 11.785-18.507 23.872-36.596 40.353-53.046" style="stroke-width:1"/>
		<path fill="#4a1c27" d="M880.603 452.298c.124 2.47.136 3.188.249 4.936.922 9.147.393 17.167-2.446 26.623-15.479 9.251-26.647 3.393-37.607-8.529 12.989-29.711 26.094-58.187 42.643-86.454 3.545 3.288 3.028 7.916 2.595 12.748-1.444 16.341-6.268 32.277-5.434 50.676" style="stroke-width:1"/>
		<path fill="#b5693f" d="M1059.46 215.044c-1.55 5.037-4.49 10.382-8.13 15.215-16.29 21.482-32.72 42.864-49.17 64.245-4.514 5.963-8.873 12.027-17.411 15.419-.585-2.362-.324-5.345 1.099-7.503 18.682-28.576 35.422-58.491 57.192-86.554 5.62-.822 10.18-.822 16.42-.822m-77.181 95.396c1.448 4.524-1.163 8.121-6.296 11.614-.774-4.111 1.64-7.812 6.296-11.614" style="stroke-width:1"/>
		<path fill="#4f324b" d="M1129.63 426.497c3.77-5.141 6.39-9.661 7.55-16.859-4.25-13.774-2.33-26.214.73-38.136 13.03-50.679 29-100.641 44.36-150.703 2.41-7.916 5.55-15.624 16.42-17.063 4.15 10.073 6.8 19.529 9.82 30.324-2.41 5.759-2.26 10.487-1.64 15.319 7.15 55.407 14.29 110.815 21.31 166.327 2.05 16.24 3.75 32.481 5.57 48.722.61 5.45.81 10.9 5.12 16.963 1 2.983.82 4.832.49 7.916-16.13 56.642-46.91 105.161-71.44 156.562-1.19 2.466-1.45 5.241-2.28 9.456-8.49 23.748-13.98 46.669-20.09 69.491-2.33 8.738-4.86 17.063-16.9 19.224-14.43-6.785-13.68-19.633-15.86-31.251-3.54-18.915.79-38.448-6.51-57.464-7.4-1.644-9.17 2.675-11.59 7.094-24.11 43.69-55.9 80.386-99.346 106.087-9.303 5.445-18.162 13.361-30.886 3.906-6.693-9.56-2.602-17.063 2.045-23.848 18.106-26.523 31.768-56.13 55.197-78.951 8.66-8.429 11.73-19.738 15.61-30.738 8.12-23.126 13.75-47.491 31.57-67.842 16.82-8.843 23.71-1.236 26.3 13.774 1.48 8.53.78 19.221 12.68 20.351 9.86.927 13.17-8.12 17.41-15.005 19.17-31.459 40.84-61.271 58.1-93.857 9.1-17.167 8.09-23.334-8.57-33.612-14.6-8.947-27.24-20.46-42.02-31.459-1.58-1.849-2.17-2.567-3.15-4.728" style="stroke-width:1"/>
		<path fill="#ac7e74" d="M1125.69 741.47c6.59-6.785 7.57-14.393 9.64-21.486a9583 9583 0 0 1 20.14-67.538c8.22-7.399 16.22-11.309 27.33-4.833 2.8 1.235 3.99 2.162 5.24 2.262 31.33 2.057 46.45 19.533 48.5 51.606.67 2.675.75 3.597.8 6.168-10.52 10.382-14.19 23.13-20.16 37.831-1.36 4.623-1.94 6.576-3.27 9.764-1.52 1.953-2.28 2.671-4.41 4.111-22.75 11.208-33.7 33.412-53.01 46.26-10.27 6.886-19.87 12.335-32.17 1.131-7.47-22.513-12.63-43.586 1.37-65.276" style="stroke-width:1"/>
		<path fill="#8f626d" d="M1185.64 654.707c-9.83-.926-18.13-2.362-28.01-3.701 20.78-51.397 47.45-100.742 73.41-150.391 1.56-2.983 3.79-5.654 6.93-9.251 3.77 10.895-.23 21.995-2.22 33.204-5.3 30.015-11.4 59.826-17.07 89.742-.75 4.01-.8 8.12-1.05 13.774.88 23.539-17.74 21.278-31.99 26.623" style="stroke-width:1"/>
		<path fill="#5f404e" d="M1185.47 655.738c.22-6.272 4.63-9.151 9.34-11.926 6.93-4.01 13.8-8.121 21.82-13.057 8.76-4.419 14.15-10.791 20.4-16.137 2.02-1.748 4.39-4.01 7.18-2.161 2.45 1.748 2.12 4.832 1.83 7.507-1.68 15.623-3.53 31.25-5.23 46.978-1.18 10.895-2.2 21.791-3.48 34.435-5.07-4.111-7.71-11.1-10.15-18.09-3.41-9.768-10.08-15.627-19.56-19.02-7-2.466-13.87-5.241-22.15-8.529" style="stroke-width:1"/>
		<path fill="#c4885a" d="M1127.26 739.003c-1.05 23.127-.48 44.408 4.34 67.33 10.77 12.339 10.05 23.644 1.06 36.905-10.08 6.476-18.91 11.204-27.64 16.036-12.81 7.198-25.54 14.497-39.56 22.617-3.24 3.597-5.55 5.859-10.75 5.963-2.6-.822-3.56-1.439-5.51-3.392-6.54-13.57-3.21-25.701-.35-37.627 13.25-55.199 28.43-110.093 40.35-165.709 3.76-17.476 11.15-34.026 20.59-51.293 5.88-.309 5.37 4.314 5.84 8.12 2.68 22.304 5.21 44.612 7.78 66.921 1.3 11.308 2.59 22.717 3.85 34.129" style="stroke-width:1"/>
		<path fill="#a44b2e" d="M1056.28 887.341c2.92-1.853 4.6-2.779 7.11-4.114 4.64 4.936 10.26 7.298 16.33 8.533 35.86 7.403 71.75 14.701 107.65 21.999 3.3.614 6.74.718 11.87 1.336 1.71 1.748 1.67 3.084 1.61 5.654-12.84 20.147-28.38 37.242-42.79 55.171a760 760 0 0 0-14.57 18.699c-1.37 1.993-2.08 2.775-4.26 4.175-15.26.409-20.97-11.341-28.16-19.658-17.86-20.68-35.23-41.837-51.8-63.632-6.23-8.121-13.4-16.446-2.99-28.163" style="stroke-width:1"/>
		<path fill="#a56450" d="M1132.81 844.678c-1.4-10.896-1.33-22-1.14-34.744 19.19-8.429 32.38-23.335 47.12-35.878 8.7-7.403 16.79-15.523 29.2-19.942 7.28 4.419 6.85 10.382 3.57 15.932-9.83 16.449-18.68 34.025-38.41 43.998-8.91 3.188-13.73 8.843-18.2 15.01-5.23 7.299-11.06 13.875-22.14 15.624" style="stroke-width:1"/>
		<path fill="#da8945" d="M1173.72 815.071c2.82-13.053 11.87-23.335 19.57-34.539 5.41-7.812 11.7-15.01 15.77-25.288.35-1.335.27-1.439.2-1.439 1.79-2.466 3.12-5.346 6.79-7.712.73-.822.94-.822 1.05-.717 4.47 6.58 4.38 13.979 4.38 21.381.03 13.466.02 26.932-.02 42.146-15.34 3.393-30.65 4.833-47.74 6.168" style="stroke-width:1"/>
		<path fill="#91737a" d="M1199.14 203.223c-4.86 9.868-6.76 20.042-9.63 29.811-16.21 54.894-32.18 109.888-48.25 164.782-.76 2.675-1.69 5.242-3.18 9.047-1.59 1.131-2.53 1.131-4.9.927-18.04-70.931-34.66-141.761-51.64-213.923.25-1.953.89-2.466 2.55-3.701 27.48 1.026 53.72 4.932 80.34 5.141 11.28 0 23.12 1.026 34.71 7.916" style="stroke-width:1"/>
		<path fill="#c4885a" d="M1137.63 997.57c1.69-1.255 3.44-1.551 4.32-1.648 5.95 4.778 12.36 7.118 18.71 9.718 12.66 5.16 25.12 10.79 37.74 16.03 13.6 5.65 24.8 14.23 34.29 27.23 1.06 6.64 1.11 12.35 1.19 19.79-8.69 6.16-18.42 6.32-27.78 7.59-20.87 2.86-41.65 6.62-64.59 7-1.92-.7-2.07-1.55-2.4-3.68-13.67-27.31-14.1-53.83-1.48-82.03" style="stroke-width:1"/>
		<path fill="#764739" d="M128.401 1071.81c-4.098-.82-7.102-.79-11.593-.59-2.229-.01-2.971-.19-4.824-.62-1.528-.94-1.941-1.63-1.752-3.35 10.939-13.51 21.289-25.96 31.603-38.45 1.741-2.11 3.136-4.48 2.158-7.33-1.035-3.01-3.826-3.79-6.521-3.81-5.385-.02-10.771.39-16.156.54-7.58.21-8.402-1.6-4.696-10.31.252-.61.802-1.08 2.033-2.52 20.247-20.836 44.957-33.059 68.444-47.006 11.252-6.685 23.323-10.88 38.204-6.469 13.294 36.905 27.887 72.215 27.004 112.745-5.273 9.59-11.986 15.47-20.523 19.14-23.82 10.23-47.801 20.1-71.946 29.54-8.18 3.21-16.914 6.12-26.931-.42-6.529-2.88-7.86-6.39-5.422-12.39 3.577-9.83 13.225-18.23.918-28.7" style="stroke-width:1"/>
		<path fill="#5e2f37" d="M165.511 923.833c-.83-19.429-.971-37.727-3.954-55.921-1.957-11.926-.927-24.261-1.247-38.449 9.488-5.345 13.911.822 17.203 7.812 13.791 29.506 28.652 58.495 41.071 88.615 3.068 7.503 3.69 14.388-2.133 22.461-18.703 6.227-33.925 2.67-47.211-12.183-1.423-4.832-2.338-8.016-3.729-12.335" style="stroke-width:1"/>
		<path fill="#6a363c" d="M167.656 935.346c15.936.513 29.234 7.615 45.126 11.092 2.306-.205 3.088-.698 5.233-.915 3.862 1.881 5.241 4.151 4.828 8.398-11.89 1.788-21.137 7.494-30.577 12.972-19.365 11.249-38.854 22.276-58.419 33.167-3.481 1.93-7.579 2.76-12.884 4.24.481-4.13 1.796-8.899 4.543-12.612 13.703-18.491 25.552-38.365 42.15-56.342" style="stroke-width:1"/>
		<path fill="#5e2f37" d="M110.584 1066.7c.261.2.277.88.289 2.61-.665.06-.846-.98-.289-2.61" style="stroke-width:1"/>
		<path fill="#5d293a" d="M131.962 1113.17c18.543-6.26 36.468-14.04 54.449-21.76 19.197-8.24 38.638-15.91 59.282-24.51 3.2-2.27 5.365-2.88 9.355-1.66 2.138 1.88 2.735 2.89 3.629 5.65-1.904 32.61-1.656 63.64-5.662 94.4-1.047 8.05-1.424 16.1-7.503 26.04-24.622-12.24-46.794-27.1-69.102-41.75-6.845-4.5-14.075-8.4-22.48-12.94-8.522-7.22-17.917-12.03-21.968-23.47" style="stroke-width:1"/>
		<path fill="#5e2f37" d="M127.391 1072.72c5.285-1.62 10.687-1.83 16.016-1.28 4.608.46 6.709 5.59 3.605 9.08-5.357 6.02-11.236 11.58-18.009 18.15-1.251-7.54-1.388-15.87-1.612-25.95" style="stroke-width:1"/>
		<path fill="#6f555a" d="M120.012 762.956c2.948-6.272 3.104-12.44 3.613-18.507 1.969-23.952 8.325-46.978 14.453-70.108.493-1.849 2.217-3.393 4.415-6.064 15.042-6.476 18.879 5.45 23.916 13.366 20.528 32.173 42.17 63.733 60.416 97.245 1.949 3.597 3.79 7.403 10.082 6.476 8.337-4.419 5.365-10.795 5.902-16.654 3.196-34.847 2.246-70.209 15.002-105.265 3.012-2.879 5.129-3.801 9.251-4.11 2.872.409 3.97.822 6.409 2.262 22.476 52.837 36.836 106.804 55.375 159.337 4.307 12.231 8.289 24.67 4.568 39.371-11.818 10.173-23.103 5.55-33.373.718-50.687-23.54-100.625-48.727-150.242-74.528-7.531-3.906-12.511-11.104-21.394-15.728-3.412-2.983-5.574-4.936-8.393-7.811" style="stroke-width:1"/>
		<path fill="#44252e" d="M127.86 771.076c6.958-.926 14.039 1.644 20.861 4.832 19.128 9.147 38.496 17.781 57.224 27.65 39.311 20.764 79.708 39.271 121.738 57.773 2.234 1.236 2.984 1.953 4.327 4.111 1.885 9.46-3.336 13.774-8.778 18.198-22.384 17.989-43.983 37.109-70.008 50.062-5.743 2.879-10.535 7.398-15.656 13.59-5.935 4.76-10.919 4.058-17.428 1.171-2.173-.822-2.907-.999-4.736-1.46-2.807-6.107-3.849-12.275-6.336-17.724-10.378-22.922-21.149-45.639-31.852-68.361-5.101-10.895-10.418-21.586-15.96-32.277-5.975-15.727-13.554-28.885-23.166-41.015-3.702-4.728-6.376-10.178-10.23-16.55" style="stroke-width:1"/>
		<path fill="#754846" d="M210.267 1313.9c3.028-12.82 6.926-24.43 10.238-36.21 7.551-26.85 14.818-53.78 22.405-82.25.204-1.57.004-1.65.044-1.58 1.455-1.41 3.112-2.52 6.564-3.22 49.421 35.9 98.508 70.37 142.166 111.66 4.544 4.3 9.961 7 16.807 10.49 3.46 3.63 4.591 6.68 4.788 11.82-1.689 34.48-4.825 66.99-17.537 99.47-2.686 3.06-4.627 4.23-8.509 5.14-57.713-30.16-115.218-58.28-164.125-102.83-1.143-1.03-.89-1.14-.822-1.02-.518-.45-1.103-1.03-2.739-.97-3.593-2.7-6.132-6.04-9.28-10.5" style="stroke-width:1"/>
		<path fill="#91737a" d="M381.005 1424.11c3.377.24 5.229.27 8.45.53 3.545-.11 5.61.23 8.754 2.32 31.804 49.16 52.079 102.3 75.835 153.72 3.569 7.73 5.096 15.57.164 25.04-8.1 7.93-13.895 16.61-26.471 17.9-19.874-.23-27.657-14.75-36.736-26.94-4.391-5.91-6.733-13.32-14.97-18.1-4.327-4.22-5.458-8.07-4.094-14.01-3.425-7.05-6.966-12.8-11.084-18.09-15.347-19.7-30.886-39.26-47.375-59.85-5.234-6.89-9.444-12.79-13.984-20.05 12.055-26.41 35.161-35.81 61.511-42.47" style="stroke-width:1"/>
		<path fill="#7a5b69" d="M382.02 1423.02c-3.81 7.66-10.414 11.29-16.65 15.19-14.268 8.9-28.801 17.39-44.717 26.52-13.305-15.37-25.263-31.13-36.897-47.11-16.473-22.63-32.826-45.35-48.979-68.22-4.696-6.65-9.869-13.13-12.523-22.61 5.786-.22 11.236 2.41 16.513 5.59 41.842 25.2 83.759 50.26 125.524 75.57 6.264 3.79 13.619 6.51 17.729 15.07m-162.573-97.79c.032-.64 1.014-.65 2.45 0 .453.25-1.492.18-2.45 0" style="stroke-width:1"/>
		<path fill="#5f404e" d="M245.877 800.887c.409 3.493.381 5.55-.377 7.399-1.199 2.879-4.166 4.628-6.452 2.47-3.934-3.601-7.435-7.916-10.358-12.439-14.064-21.795-27.778-43.79-41.801-65.69-13.643-21.173-27.51-42.25-42.315-64.454-.818-2.875-.601-4.728-.216-8.12 7.101-16.241 16.569-27.345 36.812-24.466 11.83-3.084 19.257.205 22.625 10.282 16.774 50.371 40.085 98.889 42.082 155.018" style="stroke-width:1"/>
		<path fill="#2a1c33" d="M182.293 636.822c-12.564 7.812-23.844 14.493-36.444 21.482-7.835-22.717-10.45-46.461-15.114-71.648 3.481.926 7.635 3.188 10.952 6.372 12.993 12.439 25.725 25.187 39.211 38.962 1.335 2.057 2.005 2.879 1.395 4.832" style="stroke-width:1"/>
		<path fill="#ab5a3d" d="M686.759 454.768c7.146-1.44 11.694 2.362 15.359 7.707 5.032 7.299 9.885 14.701 15.146 21.899 3.573 4.829 8.229 5.859 12.251 1.645 14.765-15.115 33.404-26.01 46.729-42.764 9.111-11.413 19.149-11.208 28.304.204 2.538 3.188 4.226 6.99 6.44 10.487 5.891 9.147 11.858 18.298 18.887 28.371 4.997 4.315 4.648 8.325 2.062 13.879-19.193 27.858-45.379 46.67-68.016 68.874-5.951 5.858-12.262 10.791-22.825 11.1-33.364 4.214-65.056 3.601-98.52.513-4.046-.409-6.336-.614-10.238-1.231-29.57-26.419-61.976-48.109-81.818-84.088-.421-2.675-.425-3.806-.024-6.581 15.655-15.009 32.422-16.754 52.308-8.016 8.966-8.124 14.115-17.785 19.344-27.345 2.29-4.214 4.424-8.533 6.878-12.643 5.032-8.43 7.916-9.151 16.321-2.984 7.158 5.245 13.803 11.204 20.552 16.963 3.637 3.084 6.905 6.58 10.558 9.664 3.946 3.393 5.759 2.466 10.302-5.654" style="stroke-width:1"/>
		<path fill="#a44b2e" d="M496.187 458.878c4.7-5.754 4.371-10.999 2.615-16.445-7.098-22-13.983-44.103-21.25-66.103-4.487-13.566-9.095-27.136-11.412-42.968 6.829 3.188 10.486 10.691 14.4 17.785 13.502 24.466 26.603 49.136 39.928 73.706 8.121 15.009 16.382 29.915 25.481 46.051 6.34 4.115 7.502 8.843 6.295 16.037-10.306 10.382-11.488 30.019-33.023 26.009-17.299-5.963-16.016-22.408-23.479-35.052-1.119-3.292-1.544-5.141-2.029-8.533-.397-4.215.209-6.99 2.474-10.487" style="stroke-width:1"/>
		<path fill="#8b5143" d="M551.551 487.867c-2.258-4.728-3.317-9.047-4.536-14.492 7.006-5.037 14.18-8.534 22.746-7.607 6.067.613 11.765-.618 17.492-3.393 7.021-3.497 8.517-2.47 12.591 4.624 1.34 2.261 2.23 4.832 4.038 8.637-1.844 4.42-5.205 4.52-8.649 3.906-13.29-2.675-25.721-.208-38.738 7.09-2.053 1.235-2.895 1.544-4.944 1.235" style="stroke-width:1"/>
		<path fill="#c77845" d="M1064.51 1431.32c-.12 1.57-2 1.16-2.93.93-.2-1.57.54-2.89 2.18-4.93.9.34.88 1.39.75 4" style="stroke-width:1"/>
		<path fill="#2e243b" d="M182.49 638.158c-1.396-1.027-1.312-1.849-1.075-3.802 3.629-4.628 3.886-8.947 3.625-14.805-1.861-58.287-13.59-113.795-24.137-169.411-6.063-31.968-11.685-64.041-15.687-97.966 7.001-29.398 14.616-57.361 22.224-85.323 1.768-6.473 3.516-12.949 5.542-20.969 5.67-.309 8.758 3.497 11.577 9.356 9.191 31.35 20.295 60.857 24.145 92.312 1.259 10.278 1.9 19.942-1.047 30.324-6.681 23.439 5.63 45.743 5.55 68.874-.165 50.166 23.984 93.547 39.463 139.395 7.615 22.512 18.707 44.099 19.61 69.799-2.266 3.188-4.011 4.524-7.459 6.272-5.518 36.697-9.5 72.575-13.663 108.553-1.098 9.456-2.775 18.812-4.351 29.912-7.803-15.11-13.67-32.482-19.16-49.958-10.169-32.586-20.824-64.863-31.383-97.245-2.117-6.58-4.303-13.161-13.774-15.318" style="stroke-width:1"/>
		<path fill="#3e2a40" d="M143.908 352.073c6.028.923 9.613 4.933 11.116 10.587 1.777 6.581 3.738 13.157 4.776 19.942 7.596 49.445 16.995 98.48 27.197 147.411 5.955 28.58 6.183 56.847-1.159 86.763-2.903-2.88-5.454-6.99-6.986-11.409-16.605-48.318-32.838-96.736-49.657-144.945-5.806-16.654-6.721-32.895-2.53-50.166 4.672-19.225 10.723-37.932 17.243-58.183" style="stroke-width:1"/>
		<path fill="#a56450" d="M918.122 1353.49c-8.65 28.91-18.491 55.7-28.961 82.32-6.461 16.42-14.22 32.46-17.428 51.63-.112 3.87-.89 5.86-3.882 8.39-2.534.98-3.633 1.13-6.352.95-22.525-2.49-43.746.82-66.171-3.99-32.73-6.57-64.113-12.19-92.384-31.1-4.72-15.29 3.204-25.26 11.152-34.12 9.275-10.34 15.752-23.72 31.134-29.74 12.456-.8 16.642 7.09 21.262 14.82 5.145 8.62 7.675 18.94 17.307 26.66 9.368-14.42 9.015-30.86 12.055-46.16 6.324-31.78 8.601-64.51 24.245-95.27 2.931-1.98 4.856-2.6 8.453-2.93 35.911 6.75 64.691 23.72 90.227 49.41 1.051 3.57.854 5.68-.657 9.13" style="stroke-width:1"/>
		<path fill="#824349" d="M918.599 1354.28c-1.512-1.58-1.729-3.76-2.218-7.55-11.513-12.39-8.902-25.86-7.238-40.75 19.601-31.26 40.394-59.19 76.452-71.84 1.436.72 3.064 1.39 3.918 1.63 20.597 13.09 10.817 31.78 10.066 50.42-.361 3.59-.341 5.36-.105 8.41-2.406 6.26-6.989 9.14-11.432 12.19-22.714 15.62-45.427 31.25-69.443 47.49" style="stroke-width:1"/>
		<path fill="#5f404e" d="M965.557 1428.49c2.061 3.61.501 7.32-1.191 11.1-14.513 32.31-28.291 64.96-43.618 96.87-15.964 33.24-29.001 67.54-41.673 105.5-1.588 3.94-2.546 4.67-5.309 5.49-2.895-.45-3.986-.97-6.364-2.79-8.666-21.38-4.872-42.09-4.503-64.35 15.35-20.72 19.232-45 30.4-65.89 5.378-10.05 11.581-18.43 24.065-23.15 12.359-15.15 23.182-29.65 33.961-44.2 4.391-5.93 8.67-11.94 14.232-18.58" style="stroke-width:1"/>
		<path fill="#bf9e8c" d="M916.911 1490.42a1575 1575 0 0 0-33.493 71.25c-2.169 4.94-4.026 10.18-10.109 14.04-14.356-7.69-12.901-21.87-13.719-34.02-.998-14.89.834-30.05 6.477-46.26 2.193-2.73 3.123-3.8 4.804-5.64 15.178-.39 29.606.02 46.04.63" style="stroke-width:1"/>
		<path fill="#5f404e" d="M969.174 1421.55c.076 1.34-.257 3.67-1.704 6.41-.309-1.52.497-3.47 1.704-6.41" style="stroke-width:1"/>
		<path fill="#d77330" d="M1138.36 995.337c.85 27.043.73 53.113.59 81.083-1.85 2.88-3.65 3.85-6.36 5.32-1.81.21-2.71-.09-4.78-1.22-40.7-43.18-74.23-90.352-109.89-135.831-15.74-20.034-20.386-19.625-32.176 3.124-8.161 15.732-15.206 32.065-24.41 47.227-5.75 9.47-12.387 18.59-27.465 14.34-9.379-5.09-12.086-13.105-13.674-21.033-9.761-48.682-28.817-95.356-31.407-147.267.858-5.345 2.967-7.915 7.715-10.281 16.991-4.52 30.99-.305 45.338 5.345 34.836 13.779 69.579 27.654 104.949 44.308 2.31 1.543 3.16 2.157 5.19 4.01 1.9 1.231 2.63 1.439 4.45 1.748-.14 9.969 5.49 16.754 11.15 23.644 23.26 28.163 46.54 56.341 70.78 85.483" style="stroke-width:1"/>
		<path fill="#dd9052" d="M1129.63 1077.4c1.25 1.09 1.6 2.97 1.82 3.91-4.02 6.74-10.27 9.24-16.78 11.61-31.37 11.47-62.72 23.03-94.02 34.7-5.8 2.16-11.54 4.17-19.41 4.11-15.464-7.57-24.88-18.8-32.716-32.64-10.71-18.92-18.594-39.18-29.442-57.99-3.829-6.64-5.481-13.92-.32-22.62 9.716-8.33 19.044-5.94 28.359-3.19 45.899 13.6 90.239 31.86 136.089 45.64 9.53 2.86 16.93 9.98 26.42 16.47" style="stroke-width:1"/>
		<path fill="#dca57e" d="M942.415 1019.13c1.095 5.45 1.451 9.79 3.38 13.25 17.264 30.88 30.092 64.2 51.029 93.07.782 1.08 1.203 2.44 2.302 4.97-1.48 1.36-3.485 1.43-6.97 1.7-6.111 7.21-12.479 6.18-20.608 3.49-6.328-2.85-11.842-3.07-17.969-6.35-14.906-15.54-35.51-14.6-51.895-23.25-11.296-5.95-23.527-10.12-34.671-19.52-1.64-2.02-2.149-2.92-2.968-5.36 9.673-29.99 37.038-41.6 56.928-60.43 2.37-2.24 5.674-3.67 9.632-6.57 2.354-.86 3.364-1.02 5.879-.9 3.392 1.19 4.844 2.57 5.935 5.9" style="stroke-width:1"/>
		<path fill="#a56450" d="M986.947 1233.43c-17.857 15.94-32.907 33.47-49.653 49.23-5.907 5.56-11.854 11.07-18.98 17.27-8.95 8.08-15.663 4.35-22.725-.88-20.64-15.25-40.518-31.38-59.213-51.19-.642-2.68-.674-3.81-.181-6.57 7.142-12.31 17.825-16.67 29.214-19.53 20.463-5.12 41.139-9.14 63.909-9.75 10.683 6.53 20.928 3.74 30.665 4.6 8.469.76 17.452-.26 25.111 8.42 1.364 3.18 1.564 5.08 1.853 8.4" style="stroke-width:1"/>
		<path fill="#4f324b" d="M930.769 1217.85c-13.891 6.01-27.689 6.14-40.943 8.38-16.834 2.84-33.095 6.95-49.332 16.18-4.267 2.44-7.451 2.84-12.455 2.14-8.842-3.74-16.931-6.16-19.489-17.07-2.314-12.51 3.617-19.59 12.559-26.61 14.725-3.5 29.074 4.19 42.668-6.15 16.622-1.59 28.407-13.19 44.736-15.51 3.834-1.24 6.348-2.06 9.845-3.75 2.154-1.12 4.287-2.28 6.404-3.47 2.346-1.52 3.645-2.44 5.811-4.27 2.053-2.12 3.192-3.4 5.313-5.66 10.202-5.75 17.196-13.12 20.773-22.49 2.386-6.24 5.377-10.07 13.036-11.8 7.527-.95 12.552 2.63 19.562 4.29 1.941 1.41 2.65 2.39 4.226 3.88 4.46 9.88-1.524 17.15-5.562 23.79-11.95 19.67-28.135 36.16-42.968 53.63-3.156 3.72-7.495 5.75-14.184 4.49" style="stroke-width:1"/>
		<path fill="#a25e44" d="M930.124 1218.98c20.287-27.69 41.42-54 63.295-81.36 7.931 7.21 5.418 16.59 3.814 25.83-3.445 19.84-6.97 39.68-10.715 61.19-13.189 1.71-26.114 1.82-39.042 1.77-6.176-.03-12.368-.31-17.352-7.43" style="stroke-width:1"/>
		<path fill="#d07c3e" d="M1000.17 1286.99c-6.061-14.81-8.231-31.17-9.794-49.32 1.058-9.95 4.431-17.03 10.554-22.86 11.21-10.65 22.27-21.43 34.54-32.97 2.61 2.39 3.4 5.77 2.14 9.09-11.92 31.75-20.42 64.84-37.44 96.06" style="stroke-width:1"/>
		<path fill="#1b1929" d="M267.636 659.231C253.384 618.833 239 579.666 224.507 540.5c-4.515-12.231-9.267-24.362-14.027-36.392-2.274-5.754-4.311-11.613-4.435-17.885-.682-34.334-6.777-68.051-13.594-101.564-1.416-6.989-2.791-13.261 5.277-17.784 4.194-2.262 2.875-7.195 2.073-11.205-5.325-26.831-10.639-53.763-16.024-80.595-1.079-5.345-2.663-10.69.577-17.371 23.66 32.381 45.691 66.611 67.057 101.255 12.796 20.764 26.824 40.71 41.364 61.883 23.05 16.141 35.995 37.419 42.01 64.868-3.637 11.922 1.091 20.969 3.545 30.324 1.845 6.99 4.403 13.879.834 22.617-6.869 9.251-14.452 8.738-22.733 5.859-10.84-3.806-21.859-7.094-32.731-11.309 16.217 38.345 29.13 77.921 44.388 116.574 2.988 7.607 4.973 15.623 11.609 23.026 3.91 3.801 6.91 6.372 11.702 9.251 7.84 16.036 24.104 21.278 33.604 33.512 5.747 7.299 14.124 13.466 8.47 26.01-7.808 7.399-14.701 5.446-21.587 1.335-29.883-17.784-58.13-38.035-86.012-58.8-6.172-4.523-9.785-11.204-13.346-19.533-.858-1.335-.886-1.335-.902-1.335-1.339-1.027-2.719-1.953-3.99-4.01" style="stroke-width:1"/>
		<path fill="#7a5b69" d="M338.286 681.026c-10.459-1.131-12.596-8.738-15.271-15.628a6783 6783 0 0 1-26.935-70.108 3295 3295 0 0 1-20.284-55.408c-2.029-5.654-3.268-11.613-4.547-19.016 20.367 2.571 38.754 11.718 59.63 17.885 21.903-8.224 36.588 5.037 49.541 11.722-19.184-15.832-45.755-30.02-52.548-63.015-2.515-10.591-7.231-18.607-12.4-26.523-7.679-11.721-15.984-23.13-21.269-37.931.846-2.779 2.049-4.114 4.15-6.376.898-1.027 1.472-.513 1.761-.309 66.134 16.036 122.187 53.25 182.968 83.883 2.571.722 3.621 1.031 6.212 1.953 3.461 1.853 5.065 3.393 7.086 6.89 1.52 4.932 1.516 8.324.742 13.261-11.249 29.193-21.222 57.156-38.04 83.47-32.731 19.738-60.889 43.277-91.976 62.606-8.653 5.445-16.377 12.335-28.82 12.644" style="stroke-width:1"/>
		<path fill="#91737a" d="M487.521 505.961c-10.883 1.335-18.699-3.084-26.639-6.99-34.831-17.376-69.611-34.952-104.515-52.119-13.458-6.681-27.156-12.848-40.81-19.12-4.989-2.262-10.038-4.319-14.345-10.074 19.842-1.952 39.668-7.915 59.951-11.104 10.166-1.644 13.234-8.016 10.856-18.298-.77-3.288-1.869-6.58-3.024-9.764-9.484-26.419-19.168-52.837-28.484-79.36-7.033-19.942-13.738-40.093-20.263-60.344-.986-2.979-.188-6.681.341-11.308 9.28 5.554 15.279 14.805 22.236 23.234 20.023 24.261 40.189 48.418 60.424 72.471 3.056 3.601 6.773 6.684 11.401 10.795 3.172 4.11 5.125 7.402 7.868 11.617 1.808 1.849 2.847 2.775 4.583 4.523.682.822.778.614.69.614 1.015.926 1.993 1.953 3.26 4.01.413 1.031.654 2.366.822 2.984 1.015 1.848 1.881 2.979 3.469 4.828 7.17 10.795 13.626 20.868 20.712 32.177 2.527 2.979 2.579 5.449 4.018 8.738.718.926.798.617.67.617 9.688 25.288 23.463 49.036 29.811 75.763 2.041 8.634 6.015 17.167-3.032 26.11" style="stroke-width:1"/>
		<path fill="#5e2f37" d="M485.829 506.987c1.091-7.094-1.459-13.361-3.4-19.838-5.651-18.711-11.333-37.318-16.923-56.129-2.306-7.707-5.249-15.314-5.101-25.183 6.232 2.053 8.598 8.633 12.195 14.183 7.631 11.926 15.218 23.848 23.712 36.905 1.88 3.084 2.871 5.141 4.647 8.121.778.822 2.106 2.261 2.045 3.188 4.837 12.748 9.733 24.465 15.259 37.522 5.738 6.681 10.482 12.231 15.014 20.251-6.577 37.21 12.034 70.209 9.56 106.601-12.307 10.177-18.892 3.184-22.774-6.477-12.948-32.485-28.969-64.045-30.504-101.772-.145-4.624-.044-7.607-.085-12.026-.798-2.057-1.455-2.775-3.055-4.419-.939-1.131-.726-.822-.59-.927m-25.251-103.825c-1.023-.822-2.254-2.775-3.694-6.063 1.027.822 2.254 2.875 3.694 6.063" style="stroke-width:1"/>
		<path fill="#8a5a4b" d="M435.499 362.455c-.426-.104-1.404-1.13-2.924-3.083.433.1 1.404 1.131 2.928 3.083m-4.524-7.607q-.661-.156-2.791-3.083.668.152 2.791 3.083m-3.805-4.832c-.458 0-1.524-.926-3.229-2.675.446 0 1.532.927 3.229 2.675" style="stroke-width:1"/>
		<path fill="#662e2c" d="M826.411 496.401c1.54-4.728 2.751-7.812 4.262-12.027 2.739-3.601 5.181-6.171 8.446-9.664 12.174-1.335 21.75 5.446 34.126 7.094 10.731 7.607 8.216 17.989 5.63 26.418-9.556 31.043-14.092 62.811-16.931 95.088-1.367 15.523-3.565 31.351-15.531 45.334-12.844 4.01-17.857-2.262-20.832-11.822-3.617-11.617-6.457-23.335-5.927-35.465.593-13.775-2.418-26.318-9.625-39.884-1.203-24.057 7.375-43.795 16.382-65.072" style="stroke-width:1"/>
		<path fill="#ac7e74" d="M1077.18 571.237c-14.11 24.157-23.54 48.931-30.17 74.632-3.35 12.953-8.65 23.952-18.66 32.895-11.75 10.482-20.52 23.335-28.24 37.109-5.961 10.587-13.468 20.355-20.133 30.633-4.435 6.785-8.597 13.775-12.916 23.644.485 4.932.489 7.094-.734 10.587-2.149 3.188-3.914 4.523-7.703 5.758-2.88.205-4.047 0-6.814-.926-5.738-3.493-8.613-7.403-11.978-13.157 2.382-36.288-16.642-66.203-22.224-99.098-7.31-43.072-19.332-85.423-27.481-128.495-1.744-9.151-5.008-18.916 4.299-28.272 2.214-2.157 3.028-3.288 4.547-5.241 6.729 2.879 12.588 1.131 18.391-1.335 52.841-22.617 105.606-45.439 158.566-67.747 16.3-6.885 32.11-15.623 51.78-17.167 1.51 0 3.07-.204 3.84-.409 6.05 9.969-.99 17.063-5.81 23.952-21.38 30.838-43.2 61.371-65.66 93.235-12.3 17.889 2.86 17.476 13.17 21.899 2.47 2.362 3.36 4.111 3.93 7.503" style="stroke-width:1"/>
		<path fill="#b5693f" d="M895.007 514.39c3.83 27.549 10.086 53.35 16.029 79.155 12.66 55.099 25.404 110.093 38.064 165.092.609 2.671.753 5.45 1.175 9.764-12.917 7.199-16.61-3.801-21.783-11.099-17.312-24.466-33.669-49.549-49.609-76.894-.778-2.775-.991-3.906-1.528-6.785-13.197-39.885-15.836-79.051-10.551-118.627 2.146-16.036 5.021-32.073 6.986-48.109.878-7.198 2.073-13.674 12.832-13.161 2.226 7.607 3.75 13.879 8.385 20.664" style="stroke-width:1"/>
		<path fill="#a56450" d="M888.307 493.008c-7.475 3.802-11.955 8.838-11.766 16.446.457 18.506-3.79 36.495-4.756 54.894-1.011 19.224 3.99 37.831 5.013 56.847.91 16.963 4.419 33.717 6.929 52.223-13.983 17.168-26.671 3.084-41.617-.926-10.322-8.12-9.969-15.523-.698-24.466 11.987-55.203 22.654-108.966 33.312-164.478 1.693-8.529 3.393-15.519 5.663-23.848 5.481 9.047 7.807 20.047 7.92 33.308" style="stroke-width:1"/>
		<path fill="#4c283e" d="M1078.37 573.294c-2.7-2.47-4.2-4.319-7.16-7.302-11.93-4.933-17.77-12.435-19.22-25.079 2.81-6.89 5.56-12.44 8.99-17.476 22.26-32.895 44.99-65.485 70.28-97.967 8.85-.104 15.53 3.493 21.19 8.429 14 12.131 29.84 21.278 45.58 30.838 9.46 5.654 10.43 8.842 5.04 18.094-18.83 32.381-36.83 65.276-58.76 95.704-5.93 8.225-10.18 17.681-15.17 26.523-8.8 15.728-15.44 18.298-31.53 12.54-6.43-2.262-10.45-6.372-11.11-13.157-.58-6.168-.59-12.235-.92-18.403-.27-4.932-1.28-9.455-7.21-12.744" style="stroke-width:1"/>
		<path fill="#ba8a7c" d="M957.128 783.925c2.049-2.366 3.124-3.497 4.888-5.655 1.825-2.466 2.563-4.214 3.774-7.194.874-1.131.673-1.339.613-1.131 3.437 1.645 6.673.618 9.488-1.339 19.421-13.775 38.959-27.341 57.999-41.529 5.32-4.01 9.43-9.764 13.45-15.214 15.35-20.764 30.44-41.737 45.68-62.601 4.81-6.581 9.84-12.953 16.05-20.251-11.29 67.842-28.28 135.485-45.89 202.918-4.31 16.554-8.26 33.204-10.03 51.915-.85 1.849-1.69 1.953-3.82 2.057-26.96-11.821-44.97-32.895-63.919-52.736-8.493-8.843-15.483-19.121-24.085-27.963-5.405-5.65-9.921-11.717-4.198-21.277" style="stroke-width:1"/>
		<path fill="#a56450" d="M1215.71 745.789c-.76 1.952-2.6 4.419-5.47 7.502-.25-2.775 1.49-5.241 5.47-7.502" style="stroke-width:1"/>
		<path fill="#75373e" d="M219.142 948.731c3.581-2.498 7.599-4.082 12.872-6.035 37.434-18.659 76.108-30.376 114.3-43.329 20.207-6.889 40.851-11.617 63.38-15.318 3.681.926 5.465 2.161 7.763 5.141 2.43 10.691-3.336 16.962-8.934 22.821-33.132 34.447-64.972 70.117-97.041 105.579-16.156 17.87-33.873 34.17-55.11 48.44-3.205.33-4.965.29-8.049.24-1.335-7.64-3.156-14.88-5.241-22.15-5.658-19.71-11.072-39.49-16.433-59.278-2.322-8.581-4.564-17.207-4.351-27.93-.919-3.565-1.817-5.418-3.156-8.181" style="stroke-width:1"/>
		<path fill="#824349" d="M255.076 1067.27c1.5-7.78 5.827-12.94 10.707-17.79 7.234-7.18 14.557-14.29 21.563-21.69 22.865-24.16 46.469-47.688 68.083-72.911 14.176-16.554 29.129-32.281 44.408-47.7 4.287-4.319 9.063-8.121 14.777-12.953 2.017-1.335 2.867-2.057 5.305-2.879 3.726.309 5.582 1.235 8.041 4.114 17.311 30.325 29.462 61.255 41.905 92.044 3.044 7.523 6.168 15.035 5.089 24.995-5.67 14.06-16.831 19.85-29.093 26.96-6.733 3.63-12.632 3.49-19.987 4.81-10.077-2.14-17.664-1.05-26.41 1.25-44.392 11.63-89.157 21.93-136.576 27.1-2.739-.04-3.826-.28-6.168-1.61-1.251-1.1-1.495-2.86-1.644-3.74" style="stroke-width:1"/>
		<path fill="#4c283e" d="M254.435 1071.15c1.034-1.24 3.063-1.12 4.082-1.1 12.832-1.24 23.218 2.18 33.412 8.22 18.98 11.25 36.46 26.56 61.17 23.65 4.892-.58 8.445 3.75 10.739 10.06 3.1 8.99 3.228 16.47.225 25.57-5.049 11.23-13.041 17.21-22.24 22.08-22.846 12.1-46.417 22.65-70.161 32.81-5.614 2.41-11.256 5.12-19.152 1.91-3.337-.39-5.101-.38-8.189-.39-1.331-20.52-2.101-40.95 1.58-61.41 2.037-11.3.894-23.19 1.067-34.82.132-8.97.497-17.84 7.467-26.58" style="stroke-width:1"/>
		<path fill="#56395a" d="M271.678 664.989c16.766 9.66 33.625 20.869 50.291 32.482 21.678 15.01 43.164 30.224 68.797 43.485 6.139.101 9.5 1.231 14.336 1.231 3.24.414 5.001 1.031 7.964 2.571 4.042 2.161 6.111 4.215 8.213 8.225 1.52 3.188 2.306 5.141 3.228 8.533-1.504 9.56-3.413 17.681-9.207 23.848-19.213 20.456-36.147 42.764-54.69 63.733-5.001 5.654-10.879 10.386-18.807 14.805-3.986 2.362-6.866 2.979-11.168 1.231-.879-.614-1.412-1.644-1.448-2.775-2.615-14.597-6.693-28.267-11.148-41.837-14.188-43.277-29.799-86.041-42.066-129.935-2.206-7.816-4.335-15.728-4.295-25.597m-4.724-6.272c1.785.413 2.711 1.54 4.147 3.497-1.332.922-3.164.922-6.376.822-.462-1.235.453-2.366 2.229-4.319" style="stroke-width:1"/>
		<path fill="#7b4e53" d="M328.662 865.442c2.654-2.158 4.555-3.084 7.418-4.524 22.745 0 42.884 7.816 63.42 13.675 5.827 1.644 11.453 4.315 12.203 13.053-51.001 18.298-101.524 35.056-152.119 51.501-7.624 2.531-15.034 7.074-24.995 3.766 8.18-11.269 20.102-19.08 31.286-27.714 20.781-16.036 42.556-30.842 62.787-49.757" style="stroke-width:1"/>
		<path fill="#2a1c33" d="M618.114 1969.84c-13.875-6.74-26.021-14.77-36.66-26.93-22.432-22.11-20.472-51.12-25.721-77.46-1.211-6.07-.136-13.04-3.473-20.66-.99-5.66-.962-10.02-.938-16.01-20.941-25.66-26.94-56.54-37.899-85.06-7.78-20.26-13.687-41.21-24.566-61.93-1.873-3.21-2.743-5.14-3.914-8.67-.589-2.59-.678-3.65-.505-6.28 2.454-12.8-5.755-20.4-9.372-29.64-3.733-9.54-11.597-18.51-4.547-31.25-7.178-27.39-19.233-51.73-30.453-76.4-15.162-33.34-30.798-66.46-47.002-101.1 5.81-8.04 12.736-7.16 19.308-1.74 11.553 9.53 24.342 17.76 33.769 31.91 1.376 15.06 11.754 23.87 17.228 35.07 12.904 26.41 29.498 51.17 36.536 80.29 2.462 10.18 11.513 15.34 19.08 23.57 7.707 18.89 8.822 38.48 20.363 56.04 1.263 13.14 4.158 23.38 11.617 33.47 10.836 14.65 18.623 31.65 24.466 48.93 2.755 8.16 6.568 13.7 14.432 19.16 5.602 22.31-5.923 41.88-4.094 64.14 4.559 15.76 2.843 32.27 17.584 44.02 9.3 16.88 15.271 32.93 18.238 50.68 3.537 21.14 19.076 33.63 38.204 41.74 9.444 4.01 19.65 7.39 17.697 22.53-10.747 13.18-22.429 8.34-33.894 4.72-7.021-2.21-13.089-6.53-21.43-10.54-1.664-1.01-1.515-1.45-1.299-1.37-.385-.55-.982-1.16-2.755-1.23" style="stroke-width:1"/>
		<path fill="#6a363c" d="M251.339 1195.28c6.488-8.14 15.451-11.49 23.916-15.56 27.341-13.1 54.814-25.93 85.138-39.45 3.718-.06 4.532.46 6.268 2.07 4.123 7.06 8.698 11.35 16.839 13.63 17.672 13.94 28.944 31.82 43.497 46.7 5.241 5.37 8.397 12.19 6.208 21.78-11.132 18.22-27.04 8.46-41.91 10.43-7.17 5.06-4.736 9.9-2.434 15.07 6.047 13.58 11.425 27.45 16.586 41.38 2.975 8.03 7.503 16.44-1.155 25.31-11.585-2.19-18.876-9.79-26.916-15.97-35.754-27.46-71.187-55.33-106.773-83-7.575-5.89-15.294-11.61-19.264-22.39" style="stroke-width:1"/>
		<path fill="#7a5b69" d="M441.778 1466.25c-11.713-10.84-22.171-20.39-32.742-29.82-4.026-3.58-8.137-7.14-15.162-8.96-1.584-.43-2.735-1.78-2.892-2.19-.401-11.31 1.276-21.93 3.553-32.59 4.516-21.17 8.373-42.5 12.676-65.38.955-2.29 1.737-2.95 4.05-3.43 36.472 35.77 56.663 81.06 81.413 123.24 5.145 8.77 12.023 16 17.14 26.38.874 7.41.677 13.09-2.896 19.99-15.86 10.54-32.614 6.68-49.308-9.5-5.273-5.11-9.732-10.93-15.832-17.74" style="stroke-width:1"/>
		<path fill="#2a1c33" d="M411.795 1327.19c-1.428-.88-2.916-1.23-3.665-1.36-1.777-2.29-2.799-4.43-4.476-7.57-3.585-17.33-11.665-31.84-17.259-47.23-4.443-12.21-9.324-24.26-13.819-36.44-1.5-4.08-1.419-8.09 4.283-11.12 25.267 7.4 41.492 26.38 59.75 42.04 20.604 17.67 38.998 37.88 58.038 57.3 7.09 7.23 12.023 14.77 7.764 26.84-1.384 2.3-2.113 3.12-4.271 4.76-32.401 1.42-59.891-8.68-86.345-27.22" style="stroke-width:1"/>
		<path fill="#8f626d" d="M493.906 1665.08c-6.04 1.23-9.408-3.2-12.969-7.08a2081 2081 0 0 1-35.566-39.8c7.219-5.13 15.062-9.06 24.438-13.29 10.145 18.9 17.62 38.56 24.097 60.17" style="stroke-width:1"/>
		<path fill="#44252e" d="M636.493 570.106c35.517-1.131 69.92-1.026 106.247-.722 12.552 4.628 16.802 14.084 19.854 23.852 7.174 23.231 18.029 45.23 21.025 69.696.654 5.345 4.772 9.664 8.321 15.728 1.091 4.832.277 8.02-1.544 12.543-14.484 13.362-31.575 18.194-48.582 22.204-16.049 3.697-26.936 11.822-32.875 28.885-6.609 6.476-9.696 14.801-20.263 16.345-2.899-.309-4.038-.618-6.693-1.749-8.702-7.502-5.566-15.727-5.221-25.183 1.243-8.124-.574-14.392-1.6-22.204-9.757-34.543-23.379-65.998-35.489-98.071-4.825-12.848-14.918-25.492-3.18-41.324" style="stroke-width:1"/>
		<path fill="#b2582c" d="M681.634 708.37c3.778 6.372 5.919 11.718 5.005 19.221-20.781 12.644-40.45 5.345-61.708-1.849-7.085-2.262-10.574-6.785-15.819-11.413-5.474-16.65-16.366-28.267-25.404-40.81-5.414-7.608-14.172-10.691-23.64-9.252-6.841 1.031-13.494 2.467-20.556-3.597-2.847-4.11-3.5-7.298-2.827-12.335 16.903-22.512 4.307-44.408.746-64.967-3.044-17.581-6.925-35.57-13.931-54.277-4.511-6.685-4.628-12.852-4.664-20.46 5.502-2.157 10.018-4.523 13.566-8.738 4.287-5.036 9.472-8.942 16.795-12.026 1.973-.513 2.799-.513 4.856-.309 1.231.105 1.175.514 1.179.822-1.091 14.701 10.49 24.466 13.855 37.318 8.794 33.717 19.192 67.125 24.814 103.004 19.169 18.607 42.263 29.502 60.665 46.978 10.142 9.56 19.625 19.22 27.068 32.69" style="stroke-width:1"/>
		<path fill="#321c2f" d="M787.264 679.586c-6.705-5.037-9.007-11.413-11.26-17.889-10.35-29.707-20.68-59.414-31.179-90.564 16.863-17.268 33.846-32.999 50.92-48.623 9.545-8.738 19.241-17.371 29.928-26.931 4.64 3.905 4.587 9.147 3.308 14.596-3.384 14.393-6.737 28.785-10.226 44.821 5.522 42.247-7.815 79.36-20.86 116.57-1.436 4.114-4.78 6.476-10.631 8.02" style="stroke-width:1"/>
		<path fill="#4c283e" d="M682.38 707.853c-19.778-10.691-36.833-26.519-54.946-41.119-8.622-6.886-17.011-13.671-28.127-16.137-6.889-1.544-10.35-6.168-11.18-14.597 4.495-20.459 14.32-37.009 23.431-53.867 3.469-6.477 6.183-14.084 16.846-15.01 3.284.309 4.985.722 7.944 1.439 1.047 15.936 8.602 29.298 14.633 42.868 11.357 25.597 19.224 52.428 28.825 78.743 1.832 4.936 1.784 10.59 2.574 17.68" style="stroke-width:1"/>
		<path fill="#662e2c" d="M629.431 565.892c-8.999 19.529-18.619 37.931-28.067 56.434-2.498 4.832-5.109 9.46-12.022 11.721-3.168-4.627-5.354-9.56-6.725-14.805-9.031-34.026-18.066-68.051-26.671-102.181-2.098-8.325-6.529-16.65-1.672-27.137 10.253 12.335 22.488 23.131 34.559 34.13 14.059 12.849 28.6 25.184 40.598 41.838" style="stroke-width:1"/>
		<path fill="#b2582c" d="M502.944 468.747c0 .513-.701-1.131-.954-2.057.401-.1.802.722.954 2.057" style="stroke-width:1"/>
		<path fill="#7b4e53" d="M871.869 1657.27c-6.099 9.74-8.14 19.9-11.854 29.33-9.937 25.24-19.405 50.66-28.856 76.08-1.877 5.05-2.848 10.44-4.391 17.22-.738 3.7-1.324 5.85-2.35 8.96-5.971 6.13-9.163 12.7-11.914 19.63-2.723 6.84-5.855 13.52-11.253 20.77-7.41-2.82-7.402-8.73-10.35-14.91-3.97-18.27-9.672-34.59-10.221-53.43 11.059-22.32 17.343-45.12 29.438-67.84-15.447 2.68-26.559 9.38-38.461 18.17-7.339.95-13.093 1.26-19.834-3.04-5.041-4.7-6.918-9.03-6.248-15.93 1.271-10.34 5.582-16.34 13.193-20.72 5.53-3.18 10.86-7.21 12.845-15.83 3.344-6.65 7.587-9.86 14.625-11.6 14.981 1.22 17.263-9.44 19.056-18.28 8.565-42.23 27.605-80.58 43.421-120.12 2.33-5.82 5.133-11.24 13.939-11.64 1.432.1 3.06-.08 3.87-.19.284 19.52.818 39.07 4.319 58.5 1.191 6.6.982 13.47 1.275 22.05.016 24.51.164 47.2.437 72.06-.1 4.61-.325 7.06-.686 10.76m-97.862 299.92c-8.257 5.7-14.922 11.64-25.2 13.89-2.486.32-3.484.46-5.634-.38-7.467-18.74 9.765-27.35 14.846-42.3 2.606-6.1 4.792-10.74 6.347-17.35 11.65-16.98 15.696-34.64 18.222-53.22 1.452-10.69 1.733-23.55 17.412-27.4 1.66.37 1.737.42 1.769.45 1.796 30.97-3.533 61.25-8.566 91.55-2.205 13.27-9.227 24.07-19.196 34.76" style="stroke-width:1"/>
		<path fill="#8a5a4b" d="M751.113 1402.59c-17.528 15.72-31.784 32.01-42.876 52.56-6.917 9.65-14.685 7.09-22.512 3.81-13.19-5.53-26.17-11.44-39.011-21.24-3.497-5.82-5.879-10.2-7.025-17.06 7.595-21.83-1.308-41.79-.032-61.77.741-11.56-.149-23.21 1.399-36.59 12.018-23.02 28.303-40.72 44.175-58.73 4.351-4.93 9.977-6.54 18.098-5.31 12.018 3.28 13.694 12.72 16.541 20.89 10.828 31.11 22.313 62.04 29.13 96 2.53 5.41 3.601 9.62 5.189 15.36.786 5.01.044 8.11-3.076 12.08" style="stroke-width:1"/>
		<path fill="#754846" d="M650.011 1436.54c13.237 1.31 23.804 5.85 34.278 10.78 6.729 3.17 13.706 5.8 22.071 8.91 21.968 8.91 43.041 15.77 64.667 20.87 7.218 1.71 14.509 3 22.22 7.85 5.999 5.59 12.588 8.89 13.185 16.7 2.262 29.72 9.729 59.26 2.17 90.86-13.362 11.8-17.48 1.96-21.274-7.27-4.908-11.94-7.186-25.13-18.438-35.66-28.227-16.77-59.462-13.42-88.419-20.34-12.603-3.02-25.408-4.77-38.396-12.03-5.999-25.75-2.783-49.92 2.827-75.67 1.692-2.56 2.53-3.46 5.109-5" style="stroke-width:1"/>
		<path fill="#b6704b" d="M800.614 1597.06c2.554-36.8-1.356-72.35-5.971-109.54 16.221-1.73 32.578-1.9 48.927-1.85 6.769.02 13.831-.45 19.613 7.18-19.866 50.94-38.601 101.33-57.128 151.8-1.64 4.47-3.328 8.93-5.233 13.29-.818 1.87-2.534 3.3-4.716 2.23-1.05-.51-1.768-1.95-2.354-3.1-.922-1.82-1.604-3.76-3.035-6.64-13.017-10.83 2.149-20.41-.566-31.76-.705-4.95.193-8.04 1.937-12.6 1.789-4.67 4.05-6.84 8.526-9.01" style="stroke-width:1"/>
		<path fill="#c77845" d="M750.728 1404.77c-1.111-4.21-1.423-7.4-1.881-12.17 14.774-30.72 28.6-60.47 50.5-85.43 5.032-5.73 9.259-12.03 20.74-8.41-3.048 33.46-8.449 65.17-14.08 96.83-3.95 22.25-8.172 44.44-12.379 66.63-.493 2.61-1.03 5.84-4.519 6.01-3.06.14-4.696-2.44-6.019-4.8a4308 4308 0 0 1-19.943-35.91c-3.95-7.2-7.755-14.48-12.419-22.75" style="stroke-width:1"/>
		<path fill="#c4885a" d="M837.587 1248.16c9.869-.17 16.377 4.47 22.713 9.67a4241 4241 0 0 0 45.523 36.84c2.586 2.07 5.714 3.46 9.941 5.55 1.066 14.01.778 27.63.417 43.07-4.985 2.31-9.448 1.06-13.29-1.97-19.164-15.13-40.891-25.57-63.283-34.84-2.442-1.01-4.564-2.79-7.912-5.18-4.969-18.62 2.338-35.06 5.891-53.14" style="stroke-width:1"/>
		<path fill="#c77845" d="M839.034 1246.07c.486 18.22.381 35.33-8.004 52.77-2.205 1.52-4.002 1.53-7.146 1.62-1.347.07-1.283.14-1.255.16-3.352-3.63-4.603-7.88-3.348-14.51.032-16.9-2.43-32.49 9.905-46.42 3.737.23 5.822 1.23 8.93 2.77 1.019.55.943 2.59.918 3.61" style="stroke-width:1"/>
		<path fill="#e6c6a9" d="M879.36 1641.96c.12.58-.706 1.54-2.073 3.27-.008-.46.549-1.69 2.073-3.27" style="stroke-width:1"/>
		<path fill="#c26b2e" d="M939.038 1015.8c-1.094 1.37-2.658 1.74-3.46 1.79-14.06 4.16-26.804 2.72-40.121-1.18-29.972-8.78-61.596-11.56-91.944-25.288-30.433-12.632-39.584-41.2-54.67-64.719-2.402-3.701-3.264-8.842-5.257-14.805 12.448-29.298 39.151-39.267 65.104-52.528 11.072.413 17.179-6.785 24.947-9.973 18.162-7.708 35.445-20.147 57.934-10.382 5.449 4.936 8.922 9.459 8.517 15.214-1.291 18.198 6.44 34.643 10.23 51.71 5.578 25.288 12.307 50.255 18.523 75.35 1.8 7.266 3.328 14.617 8.156 22.361 3.224 4.13 4.094 7.39 2.041 12.45" style="stroke-width:1"/>
		<path fill="#de8737" d="M938.685 1017.75c-.766-3.73-.794-6.88-.822-11.61 10.475-5.75 14.725-15.375 19.385-24.401 9.701-18.784 18.928-37.82 28.516-56.675 10.851-21.382 13.566-21.586 28.366-2.362 36.21 46.986 72.42 93.958 108.52 140.998 2.87 3.74 5.01 8.04 7.86 13.43-5.84 1.38-11.77.2-17.67-1.82-44.55-15.23-89.12-30.38-133.753-45.39-10.964-3.69-21.695-8.4-35.076-9.18-2.575-.87-3.573-1.64-5.326-2.99" style="stroke-width:1"/>
		<path fill="#d56730" d="M893.596 839.332c-20.676 5.654-40.354 10.282-58.427 20.047-6.557 3.492-13.939 5.036-23.098 5.14-4.712-1.748-6.252-4.523-6.826-9.56 9.797-13.774 9.909-29.297 14.669-43.176 10.395-30.12 23.6-59.213 34.243-90.977 1.6-3.289 2.474-5.137 3.974-8.53 11.18-9.46 5.995-28.989 24.549-32.69 8.799 4.01 13.077 11 17.649 17.785 15.96 23.643 31.996 47.182 49.003 71.752 2.258 4.215 3.513 7.299 5.097 11.718 2.967 13.979-5.237 20.355-13.514 27.653-11.381 10.074-24.145 17.681-38.268 26.11-3.381 2.057-5.699 2.98-9.051 4.728" style="stroke-width:1"/>
		<path fill="#d68a50" d="M903.132 835.735c-1.075-9.151 5.422-14.188 11.565-19.325 9.251-7.607 18.871-14.805 28.183-22.412 3.597-2.879 6.777-6.372 11.012-10.691.858-1.131 2.538-.822 3.372-.718 2.19 5.654 5.538 9.869 9.195 13.979 8.582 9.665 16.823 19.634 25.585 29.094 17.976 19.529 36.206 38.753 55.166 59.209-6.71.722-13.73-1.54-20.71-4.315-31.485-12.439-63.044-24.674-94.556-37.11-8.838-3.392-17.648-6.889-28.812-7.711" style="stroke-width:1"/>
		<path fill="#d56730" d="M800.894 985.171a1175 1175 0 0 1 78.181 16.369c17.701 4.32 35.121 9.79 54.185 15.42-8.024 12.4-19.457 22.22-30.645 32.26-10.683 9.59-21.731 18.76-33.854 28.74-13.057 5.91-18.418-2.34-24.173-10.16-16.914-22.99-30.641-47.97-45.614-73.963-.594-3.629-.169-5.654 1.92-8.666" style="stroke-width:1"/>
		<path fill="#a44b2e" d="M801.287 993.396c18.307 17.824 31.452 39.104 45.519 59.724 5.678 8.34 10.114 17.67 19.577 24.73 1.264 1.43 1.38 2.12 1.536 5.43-12.503 18.89-27.854 29.55-50.928 26.45-1.985-1.91-2.619-2.84-3.729-5.37-9.456-35.25-17.34-69.06-16.005-105.847 1.191-2.506 1.865-3.413 4.03-5.117" style="stroke-width:1"/>
		<path fill="#8a5a4b" d="M868.019 1082.99c27.694 8.21 53.383 20.74 79.396 32.44 2.374 1.08 4.235 3.28 6.805 6.28-.176 2.37-.826 3.41-3.019 5.49-3.914 1.85-6.352 2.34-10.763 2.59-23.395-1.17-44.741 8.1-67.995.02-3.589-2.7-5.109-4.74-6.685-8.91-.915-12.46-9.528-23.06.357-35.32.918-1.6 1.552-2.28 1.904-2.59" style="stroke-width:1"/>
		<path fill="#151122" d="M949.593 1126.81c2.165-1.32 2.871-1.66 4.339-2.89 5.409.12 10.061 1.12 15.94 2.88-7.186 15.78-14.833 31.28-28.247 44.73-13.153-17.53 6.039-28.68 7.964-44.72" style="stroke-width:1"/>
		<path fill="#844b3c" d="M865.774 1084.38c2.923 8.87 4.587 18.15 6.324 29.02-16.498 12.74-25.46 28.92-30.301 47.74-3.328 12.94-14.785 19.07-22.885 28.04-9.328 10.35-18.631 20.9-5.482 36.3 6.015 4.43 10.984 7.86 16.678 12.38 1.359 16.41-2.005 31.36-3.613 48.2-6.773 7.38-13.37 7.12-21.097.25-5.374-11.56-11.345-20.08-18.796-28.65-17.071-19.63-19.12-46.15-26.258-70.16-6.612-22.25-7.218-45.52-8.718-70.08 8.153-11.99 18.491-11.28 29.206-7.96 11.838 3.68 23.471 5.33 36.303-1.59 16.763-7.86 32.073-15.48 48.639-23.49" style="stroke-width:1"/>
		<path fill="#151122" d="M871.649 1120.35c10.43 2.81 19.26 2.01 27.974 2.41 12.772.6 25.544 1.21 40.233 1.9 4.435 2.38 4.536 5.14 2.611 9.31-6.364 4.94-15.732 5-14.713 16.73-12.584 22.26-20.087 25.41-43.277 19.31 6.965 11.74 21.494 7.04 31.483 16.96.004 3.19-1.135 4.18-2.366 4.3-14.508 1.52-28.247 6.21-43.75 10.2-14.533 2.34-23.812-3.48-31.972-15.13 2.374-26.98 6.58-51.77 33.777-65.99" style="stroke-width:1"/>
		<path fill="#4b2d3a" d="M873.397 1119.37c-14.974 18.75-24.117 39.57-29.719 63.68 2.591 14.78-8.601 16.78-17.785 22.29-4.539 6.71-7.667 12.69-11.1 19.9-26.109-1.81-29.963-10.11-14.015-30.41 6.637-8.45 14.817-15.81 22.95-22.93 5.855-5.12 10.141-10.45 11.609-18.34 2.037-10.9 9.388-19.38 14.649-28.79 4.07-7.28 11.156-9.38 20.6-9.66 1.865 1.08 2.197 2.24 2.811 4.26" style="stroke-width:1"/>
		<path fill="#a56450" d="M826.202 1206.48c1.749-8.81 8.534-14.34 16.253-20.96 11 .56 16.454 8.83 24.831 15.14-6.914 9.05-16.791 10.38-27.349 8.91-4.046-.57-8.008-1.76-13.735-3.09" style="stroke-width:1"/>
		<path fill="#151122" d="M922.87 1184.54c.505 2.06-1.48 3.24-4.596 4.72-1.123.31-1.087.35-1.075.37-1.72-3.45.445-4.87 5.671-5.09m8.24-4.11c.518 2.12-1.463 3.33-4.595 4.78-1.151.23-1.103.27-1.083.31-1.72-3.46.453-4.87 5.678-5.09m10.619-7.35c-.373 1.36-1.219 2.36-3.481 2.5-.718-1.33-.236-2 1.464-2.88 1.219-.21 1.752.18 2.017.38m-4.014 4.15c-.549 1.24-1.372 2.25-3.268 3.6-.842.51-.822.52-.83.51-.738-1.87-.309-3.4 2.622-4.42 1.348.17 1.436.26 1.476.31" style="stroke-width:1"/>
		<path fill="#7b4e53" d="M337.664 682.156c3.934-9.459 12.496-14.292 20.119-19.637 24.878-17.681 50.118-34.848 75.394-51.911 4.992-3.392 10.767-5.654 17.568-8.738 9.813 3.393 10.968 10.587 9.307 18.298-5.822 27.036-10.354 54.277-19.541 82.135-34.038 13.879-62.878 1.44-93.026-13.67-4.018-2.675-6.504-4.215-9.821-6.477" style="stroke-width:1"/>
		<path fill="#4b2d3a" d="M346.531 688.733c13.802-1.44 27.449 2.983 41.4 5.45 14.588 2.67 28.897 7.503 45.823 5.449 15.539 7.09 10.655 19.016 9.251 30.12-1.038 8.221-6.544 14.597-9.331 23.948-1.127 4.115-2.358 6.068-5.602 8.638-2.679 1.131-3.838 1.336-6.645.923-2.719-1.436-3.697-2.467-5.193-4.315-2.378-2.88-4.944-3.084-8.349-4.524-1.917-1.131-2.755-1.544-4.066-2.57-2.543-5.037-6.785-6.89-12.023-9.665-1.094-.822-.93-.922-.926-.822-.698-8.016-6.761-12.643-11.81-17.989-10.598-11.204-22.813-20.764-32.533-34.643" style="stroke-width:1"/>
		<path fill="#674b60" d="M327.049 487.763c.907-1.231 1.621-.922 2.002-.409 20.327 27.549 47.447 48.213 72.294 71.239.493.409 1.114.923 1.271 1.54.329 1.235.91 2.879.405 3.806-.481.922-2.314 1.748-3.369 1.54-2.642-.514-5.241-1.44-7.751-2.362-18.968-7.507-37.916-15.01-58.247-23.335-2.061-17.376-7.579-33.512-6.605-52.019" style="stroke-width:1"/>
		<path fill="#7a5b69" d="M271.682 519.222c.044 0-1.135-.104-1.135-.104s.838-.309.931 0c.092.309.164.204.204.104" style="stroke-width:1"/>
		<path fill="#3e2830" d="M428.926 759.254c-1.203-10.69 1.375-19.637 3.697-28.68 2.342-9.047 3.862-18.093 3.028-29.298-.89-24.774 7.086-46.156 11.184-68.259 1.74-9.456 3.629-18.812 5.374-29.811 11.797-27.137 23.679-52.529 36.331-79.256 8.622 4.419 10.001 13.362 12.933 21.691 9.72 27.549 19.745 54.994 29.779 82.543.665 1.749 2.333 3.293 4.611 5.655 7.258 1.748 6.537 6.58 6.416 12.543-.681 4.624-1.13 7.607-1.6 12.231 12.785 15.01 2.531 29.093.822 44.616-1.05 9.869-5.586 15.523-12.856 18.812-28.387 12.952-56.193 27.14-85.05 39.062-4.716 1.853-9.155 2.057-14.669-1.849" style="stroke-width:1"/>
		<path fill="#91737a" d="M486.05 507.605c.902-.618 1.953.104 2.935 2.366-.621.1-1.528-.722-2.935-2.366" style="stroke-width:1"/>
		<path fill="#674b60" d="M413.447 570.724c-.028 0 .028.1 0 0" style="stroke-width:1"/>
		<path fill="#c77845" d="M543.15 646.691c-2.467-2.262-3.83-5.758-5.703-10.691 1.111-11.822-2.077-21.795-4.255-31.764-5.293-24.161-7.591-48.727-10.466-74.941 13.394 22.309 23.074 47.801 27.377 74.837 2.214 13.979 3.95 28.68-6.953 42.559" style="stroke-width:1"/>
		<path fill="#75373e" d="M865.457 711.145c-.377 3.493-.702 5.446-1.311 8.839-4.464 5.345-9.143 7.711-14.958 5.758-20.905-7.403-42.74-12.748-61.09-29.093-1.752-1.953-2.282-2.775-2.735-5.241.105-4.115.129-6.681.137-10.487 12.283-40.811 24.144-80.49 32.85-122.741 5.979 8.225 6.124 19.429 8.125 30.02 2.775 14.801 5.169 29.602 7.771 44.408.835 4.728 1.677 9.455 7.247 13.261 1.363 6.99-2.358 12.953.529 20.455 15.21 11.409 23.648 24.979 23.435 44.821" style="stroke-width:1"/>
		<path fill="#4f324b" d="M1050.71 540.295c9.86 4.524 17.41 10.896 18.86 23.335-1.09 1.748-2.34 2.466-3.64 2.57-10.3.822-20.52 6.168-30.96.718 1.59-10.486 9.04-17.68 15.73-26.623m-84.806 230.368c1.652 1.853.132 3.597-2.286 5.963-.1-1.235.706-3.188 2.282-5.963" style="stroke-width:1"/>
		<path fill="#ab5a3d" d="M866.5 712.068c-8.357-4.111-10.952-11.922-14.268-19.221-3.341-7.298-5.911-14.905-9.215-23.852 12.311 1.031 25.023 3.497 39.298 6.067 1.625.718 1.685 1.44 1.809 3.189-6.304 11.304-7.17 24.361-17.624 33.817" style="stroke-width:1"/>
		<path fill="#30161a" d="M743.133 1968.96c1.007 1.45 2.486 2.29 3.336 2.29-3.448 5.59-9.151 9.21-15.623 11.76-.638.25-1.279.47-1.925.71-39.034 14.08-33.095 15.21-77.591 8.43-11.81-5.27-21.899-10.02-30.224-19.54 8.285-1.58 16.301 2.08 24.666 4.15 9.159 2.26 18.35 3.83 28.139-3.28 23.07-9.72 45.049-16.05 69.222-4.52" style="stroke-width:1"/>
		<path fill="#97573e" d="M419.081 763.778c1.424-1.235 2.154-1.34 3.978-1.44 30.216.205 52.336 19.016 77.592 29.298 19.473 8.016 38.24 17.781 56.542 28.267 7.603 4.319 15.282 9.251 18.29 20.151-1.207 10.482-8.141 14.184-15.351 16.241-45.382 12.848-89.477 30.837-138.448 36.287-2.222.718-2.96.718-4.8.822-2.07-.926-3.032-1.848-4.812-3.497-9.079-5.55-18.511-6.68-27.53-9.147-10.342-2.879-20.74-5.55-31.006-8.633-5.73-1.649-11.689-3.393-15.8-10.387 21.394-26.827 43.526-52.219 65.525-77.815 5.278-6.168 10.094-12.644 15.82-20.147" style="stroke-width:1"/>
		<path fill="#b5693f" d="M469.376 1014.16c-13.867-34.992-27.886-68.444-41.749-101.944-1.552-3.802-2.206-7.916-3.349-13.362 8.478-12.339 16.602-6.581 24.506-.822 44.725 32.995 94.045 59.365 135.942 96.278 1.957 1.729 4.8 2.478 8.514 4.411 15.382 27.199 18.262 57.019 27.525 84.839 2.57 7.72 2.675 16.2 8.06 25.08 13.033-26.61 23.271-53.18 35.093-79 4.274-9.33 8.377-18.73 13.309-27.74 4.11-7.518 9.705-11.403 19.814-6.603 6.131 9.173 7.916 18.303 7.655 27.373-1.748 60.17 5.63 120.08 4.652 180.22-.213 13.01-2.635 25.73-4.303 40.32-8.706 18.33-17.34 10.73-24.49 1.15-16.373-21.96-31.788-44.64-45.334-68.46-3.087-5.43-5.04-11.16-13.462-13.07-19.493-14.34-32.626-32.73-48.069-51.07-1.142-2.31-1.467-3.28-1.916-5.76 1.167-19.57-3.365-37.48-.365-55.8 1.788-10.92-6.441-8.04-11.441-3.89-11.381 9.42-21.963 19.77-33.901 30.88-2.07 1.46-3.008 1.88-5.506 2.49-2.599.1-3.65-.01-6.172-.66-2.294-1.23-3.116-1.88-4.812-3.82-4.768-13.7-15.391-20.83-23.15-30.25-7.158-8.71-17.091-16.25-17.051-30.79" style="stroke-width:1"/>
		<path fill="#c77f4c" d="M589.562 1004.1c-37.097-23.183-72.558-47.156-107.915-71.325-15.154-10.278-30.02-21.073-45.182-31.355-2.715-1.848-6.244-2.466-10.827-3.905-2.338-1.131-3.236-2.054-4.776-3.598 1.768-8.533 8.83-9.868 15.334-11.821 34.126-9.969 68.312-19.634 102.406-29.707 10.466-3.084 20.708-6.99 32.265-11.309 3.389-1.852 5.562-1.852 9.111.205 2.202 1.853 3.02 2.675 4.636 5.037.986 2.775 1.179 3.905 1.512 6.889 7.298 45.334 7.174 89.465 10.414 133.296.457 6.179-.02 12.275-6.978 17.593" style="stroke-width:1"/>
		<path fill="#8b5143" d="M359.182 1112.36c-6.696-3-12.086-1.38-17.259.04-7.868 2.13-14.545.43-21.278-3.86-19.529-12.43-39.275-24.51-60.023-37.59 3.589-5.06 9.123-7.28 15.243-8.54 15.912-3.26 31.772-6.79 47.668-10.15 25.833-5.46 51.682-10.83 77.503-16.36 6.665-1.42 13.313-2.46 21.923-1.62 5.875 7.49 1.207 12.65-2.314 18.46-14.248 23.55-30.721 45.01-55.812 60.41-2.439.3-3.433.2-5.651-.79" style="stroke-width:1"/>
		<path fill="#b6704b" d="M363.088 1112.65c2.631-5.76 5.783-10.3 9.685-14.07 10.899-10.54 20.218-22.29 28.219-35.12 6.187-9.93 13.602-18.85 22.833-28.04 6.296-1.18 11.674-1.37 18.683-1.5 31.03-.95 50.251 17.84 71.003 36.61.834 1.32.802 1.69.774 1.88-2.009 9.16-8.117 13.96-16.554 16.28-38.673 10.63-77.062 22.39-116.722 29.11-6.308 1.07-12.166 1.4-17.921-5.15" style="stroke-width:1"/>
		<path fill="#8a5a4b" d="M514.056 1070.31c-22.873-9.72-46.709-19.68-69.005-35.32 4.864-9.81 14.424-14.23 23.242-21.61 20.095 14.7 33.4 34.55 45.763 56.93" style="stroke-width:1"/>
		<path fill="#7b4e53" d="M361.159 1111.2c23.508-2.88 45.367-8.54 67.194-14.11 27.802-7.1 55.347-15.21 84.456-23.69 2.089-.53 2.727-.24 4.311.49 14.304 19-.786 32.68-8.505 49.15-16.562 7.59-32.354 7.16-50.078 5.08-10.479-.21-19.177-.67-29.058 2.73-16.93 7.06-34.859 3.48-51.201 12.66-3.328 1.03-5.265 1.48-8.742 1.51-3.328-1.06-5.024-2.12-7.799-4.29-1.219-.9-1.263-1.05-1.303-1.11-2.679-8.06-2.611-16.32-2.527-26.35.766-1.84 1.476-1.9 3.252-2.07" style="stroke-width:1"/>
		<path fill="#1b1929" d="M391.496 742.496c4.471-.922 8.802.722 11.356 7.507-3.236-1.235-6.897-3.805-11.356-7.507m16.413 11.822c1.227.309 3.489 1.335 6.737 3.084-1.243-.309-3.469-1.336-6.737-3.084" style="stroke-width:1"/>
		<path fill="#30161a" d="M617.946 1970.79c.1-.82 1.167-.76 2.671.06-.245.31-.963.32-2.671-.06" style="stroke-width:1"/>
		<path fill="#d4847d" d="M744.621 1969.09c-15.291 3.3-30.216 4.68-44.865 7.5-8.016 1.54-14.701-.05-23.026-3.89-7.455-5.46-14.918-6.6-22.116-8.6-20.876-5.8-32.073-21.51-40.153-40.15-1.331-3.07-2.35-6.6-2.282-9.9.329-16.19-7.615-28.47-18.382-41.1-.293-16.79-6.236-31.74-3.465-48.97.71-2.7 1.063-3.76 2.346-6.18 1.781-2 2.639-2.65 4.993-3.82 9.684-.8 17.48.76 24.778 4.52 17.292 8.92 34.379 18.52 55.043 10.82 2.265-.85 5.097 1.2 8.405 3.92 2.197 3.02 2.863 5.04 3.34 8.78 1.42 7.85 3.012 14.08 1.5 22.01-10.073 12.81-14.685 27.53-25.364 38.35-5.959 6.03-7.053 14.21.08 19.9 7.824 6.25 12.973 16.06 25.132 18.57 21.55-.68 35.18-18.15 56.125-20.82 2.514-.26 3.537-.29 6.115-.22 6.136.48 9.492 2.75 12.207 8.25-2.57 16.29-12.928 27.1-20.411 41.03" style="stroke-width:1"/>
		<path fill="#1b1929" d="M531.58 1659.81c-9.784-11.5-11.681-24.56-15.759-36.68-1.721-5.1-2.835-10.42-4.981-16.96-12.844-34.81-20.199-68.82-10.895-106 9.592-14.45 17.067-7.44 23.238.52 9.203 11.87 14.673 25.99 21.366 39.32 9.444 18.83 19.196 37.5 28.861 58.02 8.525 15.17 10.775 32.64 28.066 41.98 5.197 11.82 11.882 21.68 7.792 35.47-7.892 10.36-17.821 8.62-27.225 8.12-5.995-.33-11.926-3.3-19.505.58-17.881.94-22.693-12.55-30.958-24.37" style="stroke-width:1"/>
		<path fill="#674b60" d="M504.111 1492.84c1.227 36.79 1.576 72.68 5.871 110.21-2.314-1.46-5.289-4.45-7.07-8.04-20.335-41.04-40.494-82.16-60.669-123.28-.597-1.21-.85-2.59-1.471-5.35 7.37.15 13.073 5.22 19.385 9.18 12.11 7.57 24.136 15.34 40.06 18.15 2.034-.49 2.547-1.13 3.894-.87" style="stroke-width:1"/>
		<path fill="#632642" d="M581.923 1824.18c-8.63-9.08-6.556-18.81-5.197-28.12 1.769-12.11 4.347-24.1 6.585-37.82-10.655-18.18-6.453-34.8 1.102-52.86 10.146-6.94 19.542-6.93 30.974-4.24 11.946 11.6 11.152 24.29 8.482 37.42-5.374 26.4-15.174 51.34-26.503 77.5-1.492 1.21-1.444 2.16-1.243 2.61-3.365 4.2-6.833 8.19-14.2 5.51" style="stroke-width:1"/>
		<path fill="#0d0812" d="M590.798 1707.27c-2.784 16.4-4.897 31.15-7.247 47.59-5.305.86-9.223-1.82-11.497-6.35-13.506-26.9-28.359-53.16-39.944-81.01-.77-1.85-.802-4.01-1.312-7.55 8.706 4.8 17.545 11.13 27.566 18.13 22.376 2.63 30.773 9.69 32.434 29.19" style="stroke-width:1"/>
		<path fill="#c8a288" d="M580.307 1824.87c5.101-1.33 9.231-3.3 14.701-5.49 1.007 16.22 3.124 32.81-1.006 50.7-6.653-13.07-12.696-27.66-13.695-45.21" style="stroke-width:1"/>
		<path fill="#8f626d" d="M497.655 1674.02c-1.051-.9-2.37-3.05-3.886-6.46 1.079.9 2.346 3.05 3.886 6.46" style="stroke-width:1"/>
		<path fill="#4f324b" d="M499.059 1351.16c-1.408-9.25-4.993-15.66-10.659-20.99-23.315-21.9-44.452-46.01-69.219-66.51-14.107-11.68-26.346-25.62-40.269-39.59 7.194-1.75 15.042-.64 22.89 1.05 7.867 1.69 15.803 2.28 24.922-1.84 20.701-5.76 38.533 3.72 57.18 4.72 15.126.81 29.382 12.52 47.051 3.2 11.501-.42 18.703 4.11 25.135 13.54 8.526 17.28 1.777 33.02 1.344 50.55-1.801 26.85-33.292 57.32-58.375 55.87" style="stroke-width:1"/>
		<path fill="#4c283e" d="M531.187 1236.58c-5.072 5.01-10.197 6.07-15.888 5.36-20.904-2.62-41.817-5.16-62.734-7.67-8.453-1.02-15.314-5.35-23.202-10.93-3.276-4.36-4.836-8.35-7.503-11.38-13.542-15.36-27.373-30.48-42.23-46.48-6.657-6.32-13.546-10.75-16.57-20-1.026-1.85-1.283-2.62-2.041-4.52 1.259-1.39 3.02-1.64 6.091-1.74 2.218.02 3.124-.11 5.362-.62 2.229-.62 3.132-.84 5.434-.98 7.057 4.15 12.278 1.58 18.995-1.22 12.359.55 19.365 7.5 23.006 16.47 12.147 29.9 35.51 45.36 65.176 53.87 11.12 3.19 22.216 6.81 32.406 12.52 6.488 3.64 13.775 6.71 13.698 17.32" style="stroke-width:1"/>
		<path fill="#4b2d3a" d="M362.342 1145.9c6.637 3.08 12.724 8.17 15.788 17.5-9.339-.44-15.631-5.35-15.788-17.5" style="stroke-width:1"/>
		<path fill="#3e2a40" d="M497.783 1349.92c14.966-7.4 44.589-33.67 53.106-48.02 2.422-3.06 4.672-4.29 9.135-5.07 14.974 5.1 19.778 16.24 20.885 28.73 3.524 39.76 6.107 79.59 8.084 121.37 3.184 18.21-3.24 34.81 1.953 52.95-2.382 21.47 3.348 40.65 3.192 60.09-.1 12.73.678 25.56-5.057 39.52-5.121 7.94-10.855 9.74-19.677 6.35-18.302-26.21-29.759-54.18-43.795-80.8-5.417-10.27-10.001-21.05-19.549-30.36-1.115-.94-2.715-.8-3.517-.82-.89-5.48-.974-10.97-1.171-18.09-12.716-34.8-9.576-69.93-12.812-104.24-.625-6.62.554-13.68 7.764-20.08 1.419-1.45 1.415-1.52 1.459-1.53" style="stroke-width:1"/>
		<path fill="#4f324b" d="M496.187 1349.84c1.436 16.48 3.068 32.66 4.452 48.92 2.017 23.64.777 47.56.777 73.37-11.785-15.49-24.373-32.42-34.827-50.58-15.579-27.07-32.093-53.54-48.607-80.02-2.502-4.01-4.487-8.35-7.166-13.88 22.698 1.35 44.268 9.92 66.367 16.52 5.843 1.75 11.634 3.66 19.004 5.67" style="stroke-width:1"/>
		<path fill="#d0642b" d="M623.869 716.9c14.412 4.627 27.878 6.58 41.472 7.811 6.108.618 12.279.518 19.533 3.702.562 7.815-.357 15.01-1.491 23.748.822 5.754 1.928 10.073 3.629 15.932.585 3.701.922 5.758.256 7.711-16.886 48.623-4.471 95.805 6.272 143.197 3.537 15.623 10.17 31.355 3.028 49.384-14.721 15.058-23.171 1.841-30.144-6.569-19.06-22.973-38.521-45.59-58.287-67.999-11.497-12.952-21.799-26.114-27.204-44.412-.842-1.231-.943-1.13-.854-1.13-.562-.822-1.216-1.745-2.114-4.215-2.225-7.916-7.078-13.261-4.17-20.764 12.936-33.408 24.277-67.434 41.26-99.198 1.608-2.984 4.034-5.346 8.814-7.198" style="stroke-width:1"/>
		<path fill="#75373e" d="M690.801 972.712c1.717-16.233-2.486-30.705-5.433-45.386a5816 5816 0 0 0-17.079-81.826c-2.354-10.896-2.146-21.482.721-32.278 3.826-14.496 6.629-29.193 10.29-45.438 2.611-4.315 3.429-7.812 6.388-11.613 5.234-5.246 9.504-9.665 14.862-14.701 3.44-.722 5.67-.205 9.083 2.057 19.068 42.35 26.591 86.658 39.242 129.422 3.1 10.482 5.699 21.173-1.403 33.099-.794 27.962-29.382 71.075-52.528 77.026-4.712-2.671-6.104-5.53-4.143-10.362" style="stroke-width:1"/>
		<path fill="#a44b2e" d="M707.066 746.302c-2.253-1.853-3.152-2.984-4.736-4.728 2.11-30.842-.661-28.271 28.677-35.878 17.219-4.524 34.101-10.278 52.788-15.728 1.653-.204 1.889.822 1.873 1.235 7.992 7.09 9.797 16.55 11.682 25.901 7.146 35.466 11.288 71.24 16.232 107.014 1.019 7.298-.445 14.392-2.939 22.925-9.881 15.419-18.867 7.299-25.312-.208-27.208-32.073-59.457-60.135-78.265-100.533" style="stroke-width:1"/>
		<path fill="#7e412d" d="M685.801 754.831c.357 4.215-.842 7.712-5.105 10.795-.281-2.879.417-6.271 1.788-10.795.678-1.131 2.467-.513 3.317 0" style="stroke-width:1"/>
		<path fill="#d77330" d="M624.603 715.36c.288 8.016-2.214 14.288-4.829 20.56-11.93 28.989-23.555 58.078-35.373 87.171-2.333 5.654-4.042 11.513-4.266 19.325-.682 2.262-1.296 2.983-2.924 2.675-1.836-1.853-2.723-2.775-4.403-4.319-35.072-21.382-72.017-37.11-107.799-55.099-13.262-6.681-27.554-11.513-40.049-22.308.132-1.953 1.023-2.879 2.37-4.624 31.519-15.318 62.533-29.711 93.568-44.203 4.423-2.057 8.445-4.524 12.158-9.664 26.182-16.241 51.217-13.98 77.724.926 5.979 2.775 9.969 4.828 13.823 9.56" style="stroke-width:1"/>
		<path fill="#a44b2e" d="M612.312 705.591c-3.281 1.648-6.753 2.471-9.969 1.853-21.354-3.806-42.957-1.953-66.38-3.393-2.273-14.287.53-27.858 4.195-42.663 3.569-2.671 6.629-4.11 9.704-5.446 14.453-6.476 30.361-4.214 40.234 8.017 9.668 11.926 18.803 24.674 22.216 41.632" style="stroke-width:1"/>
		<path fill="#090c14" d="M605.739 1675.77c-4.09-10.26-7.679-18.86-12.01-28.6-4.985-14.9-16.101-27.23-8.401-44.91 4.475-7.42 8.569-12.36 17.776-13.13 41.413-5.89 80.387.23 121.29 4.9 25.989-.4 50.988-9.2 74.72 8.58.481 4.3-.405 7.37-1.905 11.91-7.166 14.78-14.484 27.52-28.427 36.69-5.494 1.15-9.568 2.03-12.175 2.66 2.21-.14 5.758-1.25 10.871-1.66 4.516-.05 7.206 1 10.37 4.29-3.994 13.17-13.778 20.95-23.687 30.41-6.99 6.85-14.18 9.97-22.553 10.57-14.91 1.05-29.342 4.34-45.114 8.95-21.859-7.67-42.587-13.02-62.705-20.25-6.196-2.22-13.446-2.33-18.05-10.41" style="stroke-width:1"/>
		<path fill="#d4847d" d="M752.729 1703.39c6.737.62 12.243-.16 19.397-1.17 20.624-3.15 18.976 12.46 20.965 22.9 1.712 8.99.088 18.68-2.158 29.74-1.796 8.47-.697 14.85 1.203 21.34 3.164 10.79 6.344 21.64 6.721 34.62-3.717 14.93-12.283 20.31-27.661 17.39-4.231-1.38-6.328-2.75-9.432-5.93-3.561-4.47-5.121-7.86-5.726-13.5.874-23.53-10.727-42.83-11.975-64.12-.701-12-6.203-23.88.169-37.59 2.646-3.45 4.764-4.6 8.497-3.68" style="stroke-width:1"/>
		<path fill="#4c283e" d="M753.672 1703.09c-.606 2.68-1.633 3.53-3.638 4.74-5.674 3.78-9.455 8.89-15.92 9.26-11.709.66-17.243 8.13-20.924 19.82-1.649 31.22-4.5 60.76-8.534 90.21-1.327 9.7-2.538 19.63-17.809 16.72-1.9-2.88-2.398-4.54-3.308-7.43-5.193-5.3-9.432-9.92-9.504-16.54-.361-33.08-5.021-66.07-1.849-101.04.305-3.07.421-4.28.826-7.3 1.296-5.41 3.205-8.37 8.189-10.88 15.419-3.38 27.874-10.82 42.271-11.29 8.677-.27 17.327-1.27 27.814-1.75 1.912 4.73 2.005 9.26 2.386 15.48" style="stroke-width:1"/>
		<path fill="#5e2f37" d="M791.162 1755.61c-3.685-12.32-6.524-25.66-9.179-39.03-.939-4.73-1.636-9.45-6.93-13.67.321-3.1 1.444-6.11 3.585-7.33 15.419-8.73 31.006-17.17 46.674-25.47 1.415-.75 4.383-.39 5.498.66 1.083 1.02 1.315 3.76.834 5.43-.738 2.57-2.266 4.94-3.701 7.25-10.844 17.44-19.726 35.84-27.313 54.91-2.246 5.64-5.666 10.82-9.468 17.25" style="stroke-width:1"/>
		<path fill="#e6c6a9" d="M769.407 1825.11c10.635-3.04 18.427-7.57 27.886-12.07 4.969 3.99 4.572 9.31 4.279 16.18-8.69 16.42-11.405 33.33-16.096 49.55-3.393 11.73-6.501 23.55-10.635 36.39-11.084-3.6-10.839-13.02-10.559-21.81.702-22.35 1.36-44.71 5.125-68.24" style="stroke-width:1"/>
		<path fill="#6a363c" d="M779.665 1657.16c-4.263.8-7.551 1-12.475 1.12-4.432-2.11-4.973-4.88-3.393-9.3 7.339-14.69 18.262-23.95 31.443-32.68 4.528 10.82-.71 20.44-4.672 31.74-3.645 3.75-6.785 6.14-10.903 9.12" style="stroke-width:1"/>
		<path fill="#ca6767" d="M770.129 1822.97c5.839 30.32 3.477 59.99 3.942 91.41-1.155 6.34-3.521 10.1-7.591 14.35-4.917.59-8.738-.01-13.057-3.47-9.155-9.69-10.41-20.71-9.761-31.55 1.268-21.11 5.274-41.93 8.466-62.83.878-5.75 3.472-10.29 11.08-12.42 3.268 1.3 4.595 2.47 6.917 4.51" style="stroke-width:1"/>
		<path fill="#4c283e" d="M578.334 1107.95c15.483 14.08 29.274 28.83 43.935 44.56 12.716 10.83 13.794 25.58 16.108 38.83 5.129 29.43 9.564 59 15.026 88.39 2.158 11.6 1.977 22.94-2.622 35.75-1.051 34.38-1.139 67.2-1.324 101.9-12.078 6.56-15.503-2.43-19.332-10.36-21.218-43.92-42.728-87.74-59.274-135.35-4.495-16.06 6.457-26.2 10.956-38.37 2.671-7.22 9.023-14.15-.249-22.86-9.812-9.87-18.911-18.41-17.724-34.13 1.539-24.27-3.224-47.95 14.5-68.36" style="stroke-width:1"/>
		<path fill="#b6704b" d="M758.251 1113.95c-1.275 13.38 2.158 24.67 4.692 35.94 5.398 24.01 11.822 47.8 17.937 71.66 3.605 14.06 9.283 27.08 18.539 38.55 4.258 5.27 7.246 11.56 11.316 18.76-4.126 8.78-10.41 7.41-17.4 5.38-20.571-5.94-25.572-2.93-25.929 18.56-.337 20.47-2.675 40.62-5.923 60.71-1.335 8.23-1.676 18.66-16.128 16.63-4.267-8.26-7.571-15.68-10.206-23.32-10.362-30.09-20.512-60.22-31.335-91.72-2.763-4.06-4.086-7.04-3.184-12.14 5.173-21.37 10.278-40.88 19.269-59.37 10.49-21.56 16.425-44.63 18.895-68.57.975-9.44 1.159-19.92 16.442-19.55 3.123 2.46 3.837 4.55 3.015 8.48" style="stroke-width:1"/>
		<path fill="#6a363c" d="M574.28 1267.72c13.37 14.97 17.821 33.25 25.681 49.89 15.186 32.14 29.815 64.56 44.732 96.83.55 1.19 1.753 2.08 3.657 3.97 1.548 5.3 2.09 9.76 3.016 15.84.381 1.65-.477 1.77-.91 1.85-5.506 4.92-7.275 13.07-17.107 15.19-10.723-.93-18.331 3.56-26.535 5.48-8.109 1.88-17.412 2.07-25.5-6.71-3.814-31.68-6.304-62.1-8.718-92.51-.377-4.74-.85-9.53-.506-14.24 1.099-14.83-2.43-28.27-11.93-41.57-5.514-15.78-4.13-27.99 14.12-34.02" style="stroke-width:1"/>
		<path fill="#a25e44" d="M702.106 1250.44c1.018 3.92 1.078 7.04 1.127 11.72-4.869 2.65-8.586 5.33-11.77 9.17-9.56 11.52-19.22 22.98-29.049 34.29-3.108 3.58-6.861 6.59-11.461 10.64-7.992-37.62-15.058-75.97-21.602-114.43-2.527-14.84-3.878-29.86-5.988-46.58 9.284-.9 13.438 6.49 17.994 13.29 14.087 21.01 28.018 42.14 42.198 63.1 4.195 6.2 9.011 11.97 14.625 18.79 1.712.3 2.342-.25 3.926.01" style="stroke-width:1"/>
		<path fill="#a56450" d="M744.28 1380.65c5.71-4.56 8.277-9.79 8.289-16.37.04-21.69 5.514-42.92 4.828-64.77-.361-11.34 2.586-22.83 4.331-34.18.878-5.72 5.016-7.49 10.591-4.59a265 265 0 0 1 17.648 10.07c5.77 3.59 11.453 7.26 19.742 9.09 5.193 3.73 8.429 7.84 15.366 7.87.225 3.43-.818 6.84-2.137 11.57-6.761 2.64-10.715 7.14-14.537 12.12-14.115 18.4-26.663 37.82-38.785 57.56-4.905 7.99-8.522 17.3-19.574 21.62-2.746-2.67-4.154-5.7-5.762-9.99" style="stroke-width:1"/>
		<path fill="#2e243b" d="M632.346 1445.48c5.819-3.47 10.442-6.11 16.369-9.03 1.239 24.36 1.612 49-1.183 75.17 5.723 9.6 4.833 18.22 2.017 28.43-6.303 25.62-19.998 43.61-43.786 55.49-5.971 2.15-10.783 3.28-17.051 4.71-2.021.79-2.594 1.28-4.026 1.04-.87-24.23.69-47.76-3.918-71.16-1.54-7.8-.573-16.09-.75-26 11.112-25.94 25.172-47.32 52.332-58.65" style="stroke-width:1"/>
		<path fill="#4f324b" d="M642.889 1541.02c-5.923-10.2.012-17.35 3.962-26.38 19.417 1.56 38.212 4.41 56.959 7.53 11.385 1.9 22.721 3.8 34.242 4.97 12.676 1.29 26.062 2.4 35.562 15.53 3.172 22.99-15.182 32.17-26.359 45.58-3.861 4.64-9.901 7.01-17.038 9.62-34.014-11.99-63.917-28.17-87.328-56.85" style="stroke-width:1"/>
		<path fill="#8f626d" d="M728.444 1598.19c9.131-16.74 23.15-26.98 33.152-40.42 3.188-4.27 7.346-7.84 11.986-12.78 5.947-.18 9.752 2.6 11.817 7.11 3.068 6.71 5.919 13.56 8.382 20.51 2.462 6.97 4.33 14.13 7.314 22.39.626 3.12.397 5.09-.225 7.94-13.185.65-25.817-1.22-38.837.24-9.067 1.02-18.627-2.33-29.515-3.89-3.043-.12-4.539-.06-4.074-1.1" style="stroke-width:1"/>
		<path fill="#c77f4c" d="M694.342 980.463c6.882-4.984 10.286-10.887 14.1-16.405 11.874-17.179 23.667-34.366 36.327-52.769 1.352-2.053 1.869-2.875 3.088-2.362a8336 8336 0 0 0 37.783 56.559c4.126 6.127 7.872 12.591 15.222 17.784 1.268 2.683 1.404 4.584 1.729 7.904.188 1.428-.217 1.368-.365 1.223-5.719 22.143-15.9 42.503-26.547 62.643-3.766 7.12-7.026 14.73-16.602 18.93-12.299 2.43-16.938-4.98-22.204-12.45-16-22.72-30.701-46.2-44.063-72.339-.858-3.609-.509-5.646 1.532-8.718" style="stroke-width:1"/>
		<path fill="#ba622d" d="M749.377 909.028c-.818 1.13-2.302 1.13-3.04 1.13-1.776-13.774-5.979-26.827-9.351-40.089-10.298-40.401-20.328-80.799-30.87-122.945 5.413.822 9.853 4.932 13.923 9.66 16.509 19.124 33.139 38.14 49.605 57.26 5.786 6.785 10.955 13.98 16.886 20.56 5.462 6.063 10.856 12.439 19.437 17.063 1.873.309 2.47-.1 3.954.104.782 3.597.67 6.681.55 11.309-13.723 11.1-27.45 20.66-41.132 30.324-6.552 4.628-13.887 8.225-19.962 15.624" style="stroke-width:1"/>
		<path fill="#cb6a2d" d="M811.994 851.667c-1.183.722-2.975.618-3.861.618-2.126-9.356-3.196-18.812-4.632-28.167-5.646-36.801-11.493-73.602-17.035-110.506-.902-5.963-.654-12.131-.874-20.047 7.082-2.057 13.085 1.335 19.284 3.906 18.684 7.711 37.342 15.523 57.501 23.643.101 5.45-.838 10.796-2.759 15.937-12.395 32.894-24.987 65.585-37.522 98.479-2.154 5.55-3.413 11.718-10.102 16.137" style="stroke-width:1"/>
		<path fill="#da8945" d="M755.873 1071.8c10.843-21.22 20.732-41.09 30.798-60.88 3.312-6.5 5.638-13.855 14.143-18.102 6.288 29.012 11.393 58.572 16.261 88.172 1.103 6.7 1.388 13.54 1.893 22.2-18.13 12.15-29.992-3.6-44.235-8.76-7.555-2.72-13.891-7.98-19.08-16.44-.634-2.61-.646-3.71.22-6.19" style="stroke-width:1"/>
		<path fill="#824349" d="M755.047 1075.17c21.498 9.17 41.176 18.95 62.309 29.33 1.456.6 1.267 1.85 1.251 2.49-.329 2.65-.341 4.78-1.006 6.67-4.476 12.68-8.446 14.82-21.454 11.4-11.818-3.1-22.958-8.78-37.014-9.47-1.848-1.83-2.121-3.57-2.554-6.64-9.909-11.06-18.31-20.95-1.532-33.78" style="stroke-width:1"/>
		<path fill="#662e2c" d="M937.984 1176.21c-1.661 1.41-2.687 2.22-3.93 4.22-2.599 1.75-4.752 2.62-7.756 4.29-2.959 1.75-5.069 2.68-8.132 4.28-6.384.84-11.826 1.36-17.24 1.14-16.389-.66-30.296-10.91-35.521-25.91-2.121-6.1-2.025-11.91 2.298-17.29 4.066-5.04 9.66-5.29 13.518-.12 2.43 3.26 4.21 7.03 6.821 10.12 5.582 6.6 12.848 7.66 20.038 3.26 4.752-2.9 8.125-7.15 12.131-13.07 3.633-8.39 11.894-8.26 17.48-13.71 2.061-2.56 2.831-4.57 3.842-7.62 2.329-.99 4.415-.92 8.016-.41-.133 15.32-1.428 30.29-8.357 45.59-1.292 2.3-2.142 3.25-3.208 5.23" style="stroke-width:1"/>
		<path fill="#e6c6a9" d="M937.494 1132.55c-.136 8.97-6.003 12.24-15.166 12.98-3.248-1.55-4.363-3.7-2.053-6.21 4.215-4.59 9.548-6.8 17.219-6.77" style="stroke-width:1"/>
		<path fill="#da8945" d="M695.044 978.334c.241 2.807.108 4.648-.052 7.844.1 3.958-.213 6.424-2.907 9.355-7.864 11.127-11.927 22.787-16.767 34.047-14.556 33.84-30.829 66.97-42.567 102-.637 1.91-1.764 3.69-2.847 5.4-1.139 1.82-2.839 3.13-5.045 2.31-1.111-.42-2.386-1.57-2.719-2.65-1.207-3.9-2.205-7.87-2.995-11.89-7.752-39.58-19.172-78.19-30.854-118.32-3.212-28.597-2.759-55.982-5.381-83.01-2.314-23.848-2.563-47.596-2.868-73.397 4.083 1.644 8.614 4.832 12.079 8.942 27.653 32.382 55.03 65.072 82.708 97.422 4.351 5.101 9.793 9.263 16.016 14.556 2.134 2.603 2.98 4.504 4.199 7.391" style="stroke-width:1"/>
		<path fill="#a56450" d="M691.92 997.907c.092-3.749.938-6.011 2.41-9.303 12.692 7.27 19.225 20.106 27.265 31.686 11.144 16.03 22.023 32.26 34.09 49.26 1.094 1.56 1.118 2.25 1.163 3.98-3.549 10.96-2.062 20.97-.43 32.53-5.501 4.35-7.522 9.18-7.615 14.98-.545 33.5-12.383 63.75-26.903 93.2-5.699 11.58-11.393 23.15-17.966 35.86-.87 1.14-2.771 1.17-3.721 1.17-.97-23.26-.962-46.51-1.015-69.78-.044-17.76.474-35.52-3.164-53.14-1.363-6.6-.818-13.63-.838-20.46-.092-28.73-.028-57.46-.112-86.19-.02-7.5.634-15.11-3.164-23.793" style="stroke-width:1"/>
		<path fill="#2a1c33" d="M579.85 1106.48c-2.911 23.19-6.003 45.6-9.408 69.78-11.629 10.05-18.218 1.07-24.112-5.77-13.707-15.91-25.404-33.53-40.731-49.15 1.147-16.49 8.108-29.81 12.235-45.49.874-1.78 1.52-2.04 3.152-2.63 22.232-3.73 44.656 7.51 57.717 29.34.541 1.52.966 3.11 1.147 3.91" style="stroke-width:1"/>
		<path fill="#944235" d="M579.325 1102.13c-17.115-10.15-37.066-16.83-56.118-28.38 6.641-15.84 20.416-25.37 32.105-36.79 5.37-5.25 11.409-9.83 17.232-14.61 2.526-2.06 4.904-5.56 8.786-3.26 2.534 1.49 2.602 4.62 2.558 7.33-.096 6.17.493 12.5-.718 18.46-3.729 18.3-3.132 36.82-3.845 57.25" style="stroke-width:1"/>
		<path fill="#da8945" d="M576.798 844.986c-.601-.718 1.332-.822 2.302-.926.995.722 1.023 1.44 1.059 3.188-.987.309-1.909-.618-3.361-2.262" style="stroke-width:1"/>
		<path fill="#0c111f" d="M504.131 1119.84c15.239 4.42 25.16 12.5 33.817 23.94 8.899 11.75 16.109 25.56 31.031 33.68 4.723 10.43 11.348 18.28 18.61 27.36 2.046 22.85-12.17 40.57-35 43.16-7.382-3.5-13.289-6.29-20.555-9.48-11.084-8.13-22.549-12.27-34.034-16.41-14.649-5.28-29.206-10.81-43.855-16.1-12.659-4.55-22.227-12.69-28.916-24.29-4.063-7.04-8.129-14.07-12.131-21.15-3.729-6.59-8.072-12.55-16.818-15.85-5.715-2.71-10.631.83-16.213-2.33-2.294-.89-3.352-1.1-5.991-1.64-1.516-1.16-1.444-1.98-1.003-4.01 15.924-5.27 30.918-11.67 48.871-12.41 4.52 2.67 8.414 4.1 11.241 8.84 3.26 11.51 9.5 19.73 16.032 27.52 13.346 15.89 24.919 17.02 43.409 4.99-4.82 2.93-8.91 7.22-15.094 7.51-6.287.29-12.206-.28-17.556-4.08-6.103-4.34-7.924-10.82-9.456-17.56-1.054-4.65-3.893-8.78-4.002-15.23-.501-5.92.562-9.77 5.342-13.64 17.604-3.58 34.013-2.59 52.271-2.82" style="stroke-width:1"/>
		<path fill="#2a1c33" d="M451.539 1121.51c1.415 4.1 1.167 7.92.922 13.16-6.264 9.25-13.434 9.55-22.745 2.56-2.775-4.45-4.11-7.47-5.807-11.69 8.249-3.63 17.003-4.87 27.634-4.03" style="stroke-width:1"/>
		<path fill="#4b2d3a" d="M372.444 1135.93c.878.43.758 1.24.341 3.26-.967 1.02-1.636.84-3.337.41-.02-1.23.987-2.25 2.996-3.67" style="stroke-width:1"/>
		<path fill="#75373e" d="M764.936 1817.12c-.858 4.66-2.679 7.79-2.871 11.02-1.372 22.99-5.366 45.62-8.45 68.39-1.09 8.01-1.11 16.17-1.439 26.01.18 1.74-1.845 1.69-2.855 1.67-24.001-1.28-38.309-15.92-50.712-32.94-3.818-5.24-6.573-11.18-13.145-15.98-1.107-2.14-1.356-3.08-1.344-5.47.273-8.83.277-16.23.802-25.41 6.886-2.96 9.825-7.18 9.749-13.25-.176-14.28 2.675-28.2 4.363-42.27 2.173-18.09 4.295-36.18 6.966-56.13 12.202-6.27 16.293 3.34 21.542 9.96 14.753 18.59 25.821 39.34 35.156 62.74 1.163 4.28 1.596 7.24 2.238 11.66" style="stroke-width:1"/>
		<path fill="#ca6767" d="M677.961 1710.15c2.847 41 4.371 81.11 5.53 123.12-3.485 3.25-7.266 3.88-9.608 6.06-9.869 9.18-19.598 6.78-30.036 1.15-13.807-7.45-27.922-14.31-43.241-22.19-1.856-17.39 7.94-30.54 14.657-44.28 9.813-20.09 25.063-36.93 38.978-54.35 5.005-6.27 11.95-13.47 23.72-9.51" style="stroke-width:1"/>
		<path fill="#824349" d="M679.473 1709.88c-6.039 1.7-10.362 4.85-13.586 9.46-22.116 31.68-46.895 61.53-66.083 96.88-.537 1.3-2.241 1.3-3.084 1.17-.822-8.3.919-16.17 2.928-24.04 4.68-18.3 9.383-36.59 13.61-55 1.949-8.51 2.807-17.26 4.243-27.57 8.333-17.14 23.07-11.98 35.67-12.24 7.956-.17 16.393.29 25.135 6.48 1.504 2.15 1.431 2.93 1.167 4.86m6.432 162.92c5.229.97 9.736 2.11 12.002 5.01 13.771 17.61 32.406 29.74 49.593 45.38a191 191 0 0 1-25.504 19.1c-8.474 5.28-17.348 10.12-29.663 8.22-15.367-24.84-16.814-50.36-6.428-77.71" style="stroke-width:1"/>
		<path fill="#a56450" d="M687.164 1871.19c.554 5.34-.084 10.18.786 14.73 3.822 20.03 2.956 40.24 2.883 62.32-3.404 1.19-7.306 1.4-9.828-.36-11.638-8.12-23.018-16.64-34.219-25.36-4.383-3.4-4.691-8.11-1.924-12.7.349-.58.677-1.2 1.13-1.69 11.878-12.91 23.772-25.8 37.03-39.23 2.269.06 3.027.79 4.142 2.29" style="stroke-width:1"/>
		<path fill="#2a1c33" d="M680.347 1705.65c-19.986 1.47-39.512 2.21-60.897 3.2-9.901-1.04-17.958-1.83-27.706-.29-8.634-11.59-20.227-18.98-31.11-28.98 1.279-5.75 5.209-7.8 10.534-6.74 10.061 2 20.199 2.11 32.229 1.43 29.394.35 53.8 10.83 78.478 24.77.333 2.67-.365 4.27-1.528 6.61" style="stroke-width:1"/>
		<path fill="#361f35" d="M582.481 1600.93c1.343-.36 3.067-.33 3.925-.35 2.711 13.95 4.564 27.92 6.501 43.66-11.413-8.9-16.911-23.35-24.646-38.04 3.902-2.5 8.393-3.71 14.22-5.27" style="stroke-width:1"/>
		<path fill="#1b1929" d="M551.146 1249.16c15.166-11.9 24.598-27.15 36.431-42.08 12.793 7.98 13.39 8.88 8.301 19.9-5.939 12.87-12.511 25.46-19.308 39.51-6.725 10.87-12.512 20.61-16.919 32.7-2.177 1.38-3.934 1.38-7.006 1.38-1.371-16.51-1.423-33.01-1.503-51.41" style="stroke-width:1"/>
		<path fill="#4b2d3a" d="M379.417 1142.63c4.107-2.09 8.698-1.95 14.316.94-3.897 2.64-9.034 5.61-14.316-.94" style="stroke-width:1"/>
		<path fill="#4f324b" d="M631.757 1444.62c-13.065 20.76-30.032 39.56-50.596 56.88-1.155-15.8-1.167-32.37-1.191-50.82 10.731-1.95 21.394-2.3 31.997-4.64 5.822-1.28 11.986-1.02 19.786-1.42" style="stroke-width:1"/>
		<path fill="#1b1929" d="M729.17 1596.22c1.235.88 1.788 1.81 1.792 2.36-21.093 2.9-42.13 3.32-63.215-.14-19.641-3.23-39.527-.93-61.214-1.81-.413-6.29 3.393-11.04 7.712-15.53 10.975-11.43 19.517-24.56 27.176-39.87 6.027-.93 10.53 2.06 15.158 4.84 24.851 14.88 48.959 30.83 72.591 50.15" style="stroke-width:1"/>
		<path fill="#91737a" d="M762.891 1647.58c1.957 2.79 2.121 5.4 2.474 9.33-12.616 7.22-25.985 6.25-39.544 5.35 2.635-15.73 3.461-16.88 15.086-16.72 6.737.09 13.458 1.2 21.984 2.04" style="stroke-width:1"/>
		<path fill="#a25e44" d="M763.605 1805.12c-7.519-1.46-10.864-8.31-15.058-14.36-13.43-19.38-26.848-38.76-41.144-59.01-7.387-21.24.77-22.7 15.655-23 7.435-.14 14.87-.47 24.213-.55 6.778 31.84 11.642 63.55 16.334 96.92" style="stroke-width:1"/>
		<path fill="#1b1929" d="M428.316 1137.38c6.87-1.5 13.779-1.41 22.421-1.29 5.546 1.95 8.413 4.69 9.375 9.02.734 3.32 1.079 6.78 2.202 9.96 3.072 8.69 12.331 11.12 19.854 5.5 5.129-3.84 7.483-9.53 10.523-14.85 4.054-7.09 7.787-9.09 12.671-7.56 5.695 1.78 8.939 7.8 7.989 14.81-2.455 18.07-23.552 33.72-41.93 30.88-20.776-3.22-34.615-14.87-41.16-34.89-1.046-3.2-1.291-6.66-1.945-11.58" style="stroke-width:1"/>
	</g>
</svg>
